<svg xmlns="http://www.w3.org/2000/svg" width="8" height="16" viewBox="0 0 8 16">
    <path fill="#FFA000" fill-rule="nonzero" d="M6.071 3.478h1.39c.297 0 .539-.255.539-.567V.568a.554.554 0 0 0-.54-.566H5.553L5.46 0c-.36 0-1.612.075-2.604 1.033a3.054 3.054 0 0 0-.935 2.608v1.526H.54a.554.554 0 0 0-.54.566v2.52c0 .312.242.567.54.567h1.3v6.614c0 .312.242.566.54.566H5.1c.298 0 .54-.254.54-.566V8.852h1.54a.55.55 0 0 0 .536-.502l.28-2.552a.586.586 0 0 0-.133-.442.53.53 0 0 0-.403-.19H5.64v-1.28c0-.265.069-.408.431-.408z"/>
</svg>
