<svg xmlns="http://www.w3.org/2000/svg" width="69" height="60" viewBox="0 0 69 60">
    <g fill="#97E3ED" fill-rule="nonzero">
        <path d="M51.482 16.704c-2.045-.815-2.635-1.308-2.635-2.198 0-.712.542-1.545 2.071-1.545 1.353 0 2.39.53 2.4.536.109.057.231.088.352.088a.712.712 0 0 0 .667-.454l.371-.944a.584.584 0 0 0-.317-.752c-.833-.36-2.46-.64-2.477-.643-.026-.004-.117-.024-.117-.13l-.005-1.37a.762.762 0 0 0-.772-.75h-.667a.761.761 0 0 0-.771.75l.002 1.44c0 .111-.12.16-.165.17-2.054.486-3.338 1.983-3.338 3.871 0 2.354 1.956 3.418 4.068 4.216 1.689.66 2.377 1.328 2.377 2.31 0 1.066-.975 1.812-2.373 1.812-1.193 0-2.808-.753-2.824-.76a.758.758 0 0 0-.326-.074.721.721 0 0 0-.682.472l-.354.955c-.126.357.068.646.316.775.992.514 2.911.815 2.997.828.023.004.14.045.14.15v1.436c0 .412.346.748.772.748h.688a.762.762 0 0 0 .773-.748v-1.51c0-.141.104-.154.126-.16 2.189-.488 3.537-2.081 3.537-4.081 0-2.055-1.148-3.382-3.834-4.438z"/>
        <path d="M50.621.098c-9.991 0-18.09 8.056-18.09 17.994s8.099 17.994 18.09 17.994c9.99 0 18.09-8.056 18.09-17.994S60.61.098 50.62.098zm0 31.818c-7.676 0-13.898-6.19-13.898-13.824 0-7.635 6.222-13.824 13.898-13.824 7.675 0 13.897 6.19 13.897 13.824 0 7.635-6.222 13.824-13.897 13.824zM65.019 44.726c-3.864 2.173-9.178 4.182-14.477 5.03-4.715.753-13.585-1.064-13.585-3.21 0-.814 7.78 2.003 12.485.724 3.609-.981 3.096-4.422 1.134-4.875-1.952-.452-13.384-4.72-18.267-4.867-2.3-.07-7.98.815-10.728 1.271-.941.156-1.531.14-1.59 1.057-.274 4.267-.813 12.994-1.106 17.552-.007.096.125 1.391 1.173.48 1.148-.998 2.758-2.104 4.247-1.76 2.336.54 22.547 4.314 25.335 3.654 3.988-.945 15.277-7.763 17.442-9.883 3.355-3.285.747-6.754-2.063-5.173zM14.413 38.633L3.826 38.1c-.818-.04-1.653.587-1.856 1.395L.045 57.309c-.203.808.3 1.496 1.118 1.528l11.734-.001c.818.032 1.538-.622 1.6-1.454l1.29-17.162c.062-.832-.556-1.546-1.374-1.587zM8.18 56.476c-1.617 0-2.927-1.336-2.927-2.983 0-1.648 1.31-2.984 2.927-2.984s2.928 1.336 2.928 2.984c0 1.647-1.31 2.983-2.928 2.983z"/>
    </g>
</svg>
