<svg xmlns="http://www.w3.org/2000/svg" width="170" height="53" viewBox="0 0 170 53">
    <g fill="#364A57" fill-rule="evenodd">
        <path d="M26.716 33.278l-.358 3.752c-2.256.621-4.714.932-7.374.932-6.31 0-11.051-1.582-14.224-4.746C1.586 30.052 0 26.186 0 21.62c0-4.784 1.77-8.909 5.31-12.376 3.54-3.466 8.3-5.2 14.28-5.2 1.65 0 3.393.227 5.227.68l-.77 4.004c-2.11-.604-3.99-.906-5.64-.906-4.44 0-7.805 1.259-10.098 3.777-2.293 2.518-3.44 5.598-3.44 9.24 0 3.71 1.321 6.892 3.963 9.544 2.641 2.652 6.291 3.978 10.95 3.978 1.78 0 4.09-.36 6.934-1.083M52.245 25.214c0-2.618-.719-4.946-2.157-6.985-1.439-2.038-3.486-3.058-6.143-3.058-2.639 0-4.668.966-6.088 2.895-1.42 1.93-2.13 4.17-2.13 6.72 0 2.635.72 4.967 2.158 6.997 1.438 2.03 3.495 3.046 6.17 3.046 2.638 0 4.663-.97 6.074-2.908 1.41-1.938 2.116-4.173 2.116-6.707M57 24.333c0 4.296-1.347 7.647-4.04 10.055C50.266 36.796 47.096 38 43.45 38c-3.408 0-6.335-1.066-8.781-3.197C32.223 32.673 31 29.67 31 25.793c0-4.33 1.35-7.71 4.054-10.143C37.756 13.217 40.93 12 44.577 12c3.408 0 6.33 1.078 8.768 3.234C55.78 17.391 57 20.424 57 24.333M88 33.305l-.348 3.761c-2.196.622-4.588.934-7.176.934-6.141 0-10.756-1.586-13.844-4.758C63.544 30.07 62 26.196 62 21.618c0-4.795 1.722-8.93 5.168-12.406C70.613 5.738 75.245 4 81.065 4c1.606 0 3.302.227 5.087.682l-.75 4.013c-2.052-.606-3.882-.909-5.489-.909-4.32 0-7.595 1.262-9.827 3.786-2.231 2.525-3.347 5.613-3.347 9.264 0 3.72 1.286 6.908 3.856 9.566 2.57 2.66 6.123 3.988 10.657 3.988 1.731 0 3.98-.361 6.748-1.085M114.245 25.214c0-2.618-.72-4.946-2.157-6.985-1.439-2.038-3.486-3.058-6.143-3.058-2.638 0-4.668.966-6.087 2.895-1.42 1.93-2.13 4.17-2.13 6.72 0 2.635.718 4.967 2.157 6.997 1.438 2.03 3.494 3.046 6.17 3.046 2.638 0 4.663-.97 6.074-2.908 1.41-1.938 2.116-4.173 2.116-6.707m4.755-.881c0 4.296-1.347 7.647-4.04 10.055-2.694 2.408-5.864 3.612-9.51 3.612-3.408 0-6.335-1.066-8.78-3.197-2.447-2.13-3.67-5.134-3.67-9.01 0-4.33 1.351-7.71 4.054-10.143 2.702-2.433 5.877-3.65 9.523-3.65 3.408 0 6.33 1.078 8.767 3.234 2.437 2.157 3.656 5.19 3.656 9.099"/>
        <path d="M12.07 11.046a1.5 1.5 0 1 0 2.859.908 1.5 1.5 0 0 0-2.858-.908M18.93 13.954a1.5 1.5 0 1 1-2.86-.908 1.5 1.5 0 0 1 2.86.908M13.929 17.605c-.25 1.053-1.094 1.635-1.883 1.3-.79-.334-1.226-1.458-.975-2.51.25-1.053 1.094-1.635 1.883-1.3.79.333 1.226 1.458.975 2.51M15 31s-3.295-.784-5.364-3.138C7.566 25.507 7 22 7 22s1.13 2.686 3.2 5.04C12.27 29.394 15 31 15 31M39.41 47.802c.137.025.282.05.434.072.151.023.318.034.499.034.411 0 .757-.067 1.039-.202.281-.135.51-.313.687-.534.176-.222.303-.476.381-.764.079-.287.118-.583.118-.89 0-.32-.043-.6-.129-.842a1.755 1.755 0 0 0-.352-.607 1.419 1.419 0 0 0-.536-.367 1.846 1.846 0 0 0-.68-.122c-.107 0-.228.012-.363.035a3.602 3.602 0 0 0-.4.091c-.132.038-.26.086-.382.141a1.714 1.714 0 0 0-.316.184v3.77zM38 39h1.41v2.748l-.003.26-.008.332c-.002.114-.006.225-.01.332a3.02 3.02 0 0 1-.023.267c.103-.066.223-.129.36-.187.137-.059.283-.108.437-.149.154-.04.313-.074.477-.1a3.1 3.1 0 0 1 .474-.038c.455 0 .862.073 1.219.218.357.145.66.35.907.615.247.264.436.579.565.942.13.364.195.768.195 1.21 0 .535-.083 1.02-.25 1.458a3.222 3.222 0 0 1-.705 1.122c-.303.311-.672.55-1.105.718-.433.168-.92.252-1.458.252-.24 0-.478-.011-.716-.034a9.016 9.016 0 0 1-1.288-.218 5.455 5.455 0 0 1-.478-.137V39zM46 43h1.56v4.238c0 .479.096.849.288 1.11.191.262.48.392.87.392.172 0 .34-.022.505-.067.164-.044.319-.104.464-.179a3.176 3.176 0 0 0 .752-.538V43H52v6.85h-1.512l-.049-.684c-.113.105-.24.208-.38.308s-.295.19-.465.267c-.17.078-.353.14-.55.188a2.673 2.673 0 0 1-.626.071c-.825 0-1.434-.227-1.828-.68-.393-.453-.59-1.114-.59-1.982V43zM55.403 45.791c0 .356.04.663.122.922.082.26.193.473.335.64.141.168.305.293.493.374.187.082.386.122.597.122.182 0 .356-.024.521-.072a2.702 2.702 0 0 0 .845-.412c.116-.084.214-.161.296-.232v-3.14a1.333 1.333 0 0 0-.23-.157 2.25 2.25 0 0 0-.32-.145 2.737 2.737 0 0 0-.379-.106 2.012 2.012 0 0 0-.41-.042c-.235 0-.465.037-.69.11a1.499 1.499 0 0 0-.601.374 1.886 1.886 0 0 0-.421.693c-.106.287-.158.644-.158 1.071zM60 48.863h-1.33l-.044-.55c-.11.093-.238.179-.381.26a3.457 3.457 0 0 1-.996.37 2.788 2.788 0 0 1-.566.057c-.388 0-.745-.07-1.071-.21a2.356 2.356 0 0 1-.85-.617 2.89 2.89 0 0 1-.56-1.01c-.135-.401-.202-.866-.202-1.395 0-.498.072-.95.216-1.357.144-.406.349-.754.615-1.044.266-.29.59-.513.971-.67a3.317 3.317 0 0 1 1.277-.237c.297 0 .576.037.835.11.259.074.491.17.698.286V39H60v9.863zM63.447 46.496c0 .335.034.62.103.853.068.233.167.424.297.571.13.147.288.254.474.32s.396.099.631.099c.255 0 .527-.062.815-.187.29-.124.564-.3.823-.529v-3.48a3.12 3.12 0 0 0-.433-.07 5.375 5.375 0 0 0-.5-.022c-.41 0-.757.07-1.039.21a1.9 1.9 0 0 0-.683.552 2.182 2.182 0 0 0-.374.78 3.569 3.569 0 0 0-.114.903M62 46.54c0-.533.083-1.018.25-1.454a3.17 3.17 0 0 1 .705-1.116 3.146 3.146 0 0 1 1.109-.716c.435-.17.92-.255 1.454-.255.244 0 .484.011.72.034.235.023.46.052.675.088.215.036.416.077.602.126.186.048.348.097.485.148v5.644a7.96 7.96 0 0 1-.165 1.717c-.11.495-.295.909-.555 1.241a2.38 2.38 0 0 1-1.028.75c-.426.168-.955.252-1.586.252-.367 0-.72-.026-1.058-.076a5.007 5.007 0 0 1-.918-.221V51.46c.372.117.732.206 1.08.267.347.061.68.091.999.091.362 0 .66-.067.896-.201a1.5 1.5 0 0 0 .558-.553c.137-.233.232-.507.286-.822.054-.315.08-.652.08-1.013v-.488c-.273.204-.567.371-.88.503a2.697 2.697 0 0 1-1.058.198c-.436 0-.819-.067-1.15-.202a2.196 2.196 0 0 1-.829-.579 2.477 2.477 0 0 1-.503-.913A4.012 4.012 0 0 1 62 46.54M73.15 44.224c-.47 0-.854.132-1.151.396-.297.263-.495.648-.593 1.154h3.195c-.024-.506-.162-.89-.412-1.154-.25-.264-.596-.396-1.038-.396M70 46.459c0-.516.076-.988.228-1.415.152-.427.367-.792.644-1.093.277-.302.61-.536.998-.702A3.26 3.26 0 0 1 73.166 43c.466 0 .874.075 1.225.224.351.15.647.364.888.641.24.277.42.617.54 1.02.12.402.181.856.181 1.362v.67h-4.624c.025.276.09.533.196.77a1.863 1.863 0 0 0 1.06 1.003c.243.096.511.143.806.143.172 0 .354-.017.548-.053.194-.035.393-.087.597-.155.204-.067.407-.15.61-.249.205-.097.4-.212.586-.342v1.232a4.963 4.963 0 0 1-1.182.542A4.806 4.806 0 0 1 73.18 50c-.49 0-.932-.08-1.325-.24a2.706 2.706 0 0 1-1.001-.698 3.121 3.121 0 0 1-.633-1.114A4.664 4.664 0 0 1 70 46.46M81.903 48.728c-.158.09-.348.158-.57.204a3.495 3.495 0 0 1-.696.068c-.562 0-.963-.167-1.204-.5-.241-.332-.362-.84-.362-1.527v-3.327H78v-.99h1.113A101.047 101.047 0 0 0 79.58 41h.828v1.656H82v.99h-1.593v3.547c0 .217.051.392.153.525.102.134.25.2.445.2.172 0 .332-.008.48-.026a5.45 5.45 0 0 0 .418-.064v.9zM89.903 48.728c-.158.09-.348.158-.57.204a3.493 3.493 0 0 1-.697.068c-.56 0-.962-.167-1.203-.5-.241-.332-.362-.84-.362-1.527v-3.327H86v-.99h1.113A64.678 64.678 0 0 0 87.579 41h.828v1.656H90v.99h-1.593v3.547c0 .217.051.392.153.525.102.134.25.2.445.2.172 0 .332-.008.48-.026.149-.017.288-.039.418-.064v.9zM97.45 46.476c0-.74-.162-1.298-.483-1.673-.322-.375-.79-.563-1.407-.563-.621 0-1.106.193-1.454.58-.349.386-.523.949-.523 1.688 0 .354.046.67.137.95.091.281.222.517.394.71.171.193.379.342.623.445.243.103.518.155.823.155.616 0 1.085-.196 1.407-.587.321-.392.482-.96.482-1.705m1.551 0c0 .527-.083 1.009-.249 1.443a3.142 3.142 0 0 1-.707 1.114 3.129 3.129 0 0 1-1.113.714 4.066 4.066 0 0 1-1.475.253c-.525 0-1-.082-1.427-.245a3.112 3.112 0 0 1-1.089-.69 3.021 3.021 0 0 1-.695-1.08 3.918 3.918 0 0 1-.245-1.42c0-.56.083-1.06.249-1.5.166-.442.406-.816.72-1.123a3.102 3.102 0 0 1 1.14-.701c.448-.16.953-.241 1.516-.241.54 0 1.02.079 1.438.237.418.157.77.386 1.057.685.287.3.505.664.655 1.093.15.43.225.917.225 1.46M100 43h1.56v4.238c0 .479.096.849.288 1.11.19.262.48.392.869.392.172 0 .34-.022.505-.067.165-.044.32-.104.465-.179a3.172 3.172 0 0 0 .752-.538V43H106v6.85h-1.512l-.049-.684c-.113.105-.24.208-.38.308s-.295.19-.465.267c-.17.078-.353.14-.55.188a2.673 2.673 0 0 1-.626.071c-.825 0-1.434-.227-1.828-.68-.393-.453-.59-1.114-.59-1.982V43zM110.976 43c.18 0 .353.02.52.063.167.041.335.095.504.162v1.3a3.955 3.955 0 0 0-.572-.096c-.2-.02-.391-.029-.57-.029a.914.914 0 0 0-.513.138 1.02 1.02 0 0 0-.337.366c-.085.153-.146.331-.183.534a3.545 3.545 0 0 0-.055.637V50h-1.524v-4.542c0-.205-.008-.422-.024-.65a15.95 15.95 0 0 0-.06-.658 11.2 11.2 0 0 0-.079-.58 4.726 4.726 0 0 0-.083-.412h1.286c.026.05.053.119.079.204.026.087.052.181.075.284.024.103.047.212.068.329.02.117.037.23.048.342.079-.14.163-.285.253-.438a2.71 2.71 0 0 1 .31-.425 1.74 1.74 0 0 1 .385-.325.887.887 0 0 1 .472-.129M117 47.968c0 .289-.045.557-.134.804-.089.248-.224.462-.405.645-.18.182-.407.324-.68.428a2.698 2.698 0 0 1-.958.155c-.357 0-.695-.05-1.013-.151a2.361 2.361 0 0 1-.81-.428v-1.355c.125.098.264.193.416.286a3.677 3.677 0 0 0 .937.404c.154.04.296.061.426.061.314 0 .543-.076.687-.228a.776.776 0 0 0 .218-.555.996.996 0 0 0-.044-.306.628.628 0 0 0-.163-.253 1.435 1.435 0 0 0-.332-.233 5.303 5.303 0 0 0-.546-.245 4.261 4.261 0 0 1-.764-.395 1.993 1.993 0 0 1-.491-.457 1.619 1.619 0 0 1-.264-.538 2.375 2.375 0 0 1-.08-.633 1.879 1.879 0 0 1 .633-1.428c.195-.173.424-.308.687-.403.263-.095.544-.143.843-.143.27 0 .535.03.795.09s.514.163.76.31v1.223a4.57 4.57 0 0 0-.749-.297 2.695 2.695 0 0 0-.777-.119c-.3 0-.525.071-.677.213a.702.702 0 0 0-.227.538c0 .092.015.18.047.261a.68.68 0 0 0 .162.237c.078.076.183.153.318.232.135.079.307.16.514.24.29.115.539.236.749.364.21.128.383.27.52.428.138.158.24.339.304.543.065.204.098.439.098.705M123 40c6.97 4.632 14.745 5.871 23.5 2.983 9.134-3.892 16.781-2.425 23.5 2.387-9.003-1.73-16.837-1.01-23.5 1.64-12.589 4.46-19.778 1.123-23.5-7.01"/>
        <path d="M135 40.665c6.268-3.258 15.168-9.008 15.502-24.58 0-2.78 4.498-2.78 4.498 0v8.911c0 6.325-3.11 11.74-6.316 13.513-2.68 1.581-9.139 3.21-13.684 2.156"/>
        <path d="M137.852 26.855c.174.353 4.71-15.371 14.262-15.415 9.91 1.825 12.794 10.037 13.694 15.559.187.158 12.25-18.056-11.779-18.944 4.27-3.97 9.001-3.305 14.12 1.224-1.727-10.084-7.403-11.67-16.035-5.402-7.072-6.411-15.255-5.067-16.816 5.498 4.334-4.944 8.562-5.954 12.913-2.617-16.744 1.513-14.237 14.574-10.359 20.097"/>
    </g>
</svg>
