<svg xmlns="http://www.w3.org/2000/svg" width="30" height="26" viewBox="0 0 30 26">
    <path fill="#FFF" fill-rule="nonzero" d="M29.185 4.959a.958.958 0 0 0-.732-.379l-18.209-.738c-.522-.022-.959.358-.981.847-.022.49.38.903.9.924L27.14 6.3l-3.338 9.801H8.948L6.264 2.352a.901.901 0 0 0-.582-.666L1.287.061C.802-.117.256.107.065.562c-.19.456.048.97.532 1.15l3.909 1.444 2.73 13.993c.083.42.472.726.927.726h.453L7.582 20.58a.701.701 0 0 0 .096.675.8.8 0 0 0 .642.314h.726c-.45.471-.726 1.091-.726 1.773C8.32 24.807 9.588 26 11.146 26c1.557 0 2.825-1.193 2.825-2.66 0-.68-.276-1.301-.725-1.772h6.16c-.45.471-.726 1.091-.726 1.773 0 1.466 1.268 2.659 2.826 2.659s2.826-1.193 2.826-2.66a2.56 2.56 0 0 0-.726-1.772h.883c.433 0 .784-.33.784-.738 0-.409-.351-.74-.784-.74H9.437l.847-2.215h14.204c.41 0 .772-.25.897-.616L29.31 5.736a.841.841 0 0 0-.125-.777zm-18.04 19.564c-.692 0-1.255-.53-1.255-1.182 0-.652.563-1.182 1.256-1.182.692 0 1.255.53 1.255 1.182 0 .652-.563 1.182-1.255 1.182zm10.361 0c-.693 0-1.256-.53-1.256-1.182 0-.652.563-1.182 1.256-1.182.693 0 1.256.53 1.256 1.182 0 .652-.563 1.182-1.256 1.182z"/>
</svg>
