<svg xmlns="http://www.w3.org/2000/svg" width="17" height="16" viewBox="0 0 17 16">
    <path fill="#F5A623" fill-rule="nonzero" d="M16.65 6.086a.334.334 0 0 0-.266-.235l-5.132-.777L8.962.193A.328.328 0 0 0 8.667 0a.328.328 0 0 0-.296.193l-2.29 4.88-5.132.778a.335.335 0 0 0-.266.235.358.358 0 0 0 .083.355l3.717 3.794-.882 5.36c-.021.13.03.261.131.339a.316.316 0 0 0 .348.026l4.587-2.536 4.587 2.536a.317.317 0 0 0 .347-.026.354.354 0 0 0 .131-.339l-.881-5.36 3.716-3.794a.359.359 0 0 0 .084-.355z"/>
</svg>
