<svg xmlns="http://www.w3.org/2000/svg" width="48" height="71" viewBox="0 0 48 71">
    <g fill="#97E3ED" fill-rule="nonzero">
        <path d="M0 20.416c0 3.51 2.605 6.354 5.819 6.354s5.82-2.844 5.82-6.354c0-2.66-1.5-4.937-3.622-5.881l.364-.525s1.405-2.173 1.514-2.333c.249-.365.582-2.042-1.747.21-2.328 2.252-6.33-1.91-6.487-1.361-.159.551 2.296 3.484 2.296 3.484l.256.303C1.779 15.076 0 17.515 0 20.416zm5.586.115c-1.042-.317-1.756-.755-1.756-1.608 0-.77.608-1.374 1.65-1.56v-.833h.957v.77c.652.027 1.092.15 1.414.29l-.285.992c-.251-.096-.701-.299-1.404-.299-.634 0-.837.245-.837.49 0 .288.34.475 1.169.756 1.159.366 1.629.849 1.629 1.639 0 .78-.616 1.446-1.736 1.624v.892h-.955v-.833c-.655-.025-1.289-.183-1.66-.377l.294-1.027c.41.202.983.385 1.62.385.553 0 .935-.192.935-.542 0-.33-.314-.54-1.035-.76zM41.32 11.64a6.409 6.409 0 0 0-6.402 6.4 6.41 6.41 0 0 0 6.402 6.403 6.408 6.408 0 0 0 6.401-6.403c0-3.53-2.87-6.4-6.401-6.4zm0 11.392a4.997 4.997 0 0 1-4.994-4.993 4.996 4.996 0 0 1 4.994-4.99 4.997 4.997 0 0 1 4.993 4.99 4.999 4.999 0 0 1-4.993 4.993z"/>
        <path d="M44.146 16.699c-.186-.375-.604-.515-.942-.31l-2.882 1.752-3.24-1.768c-.346-.185-.763-.028-.93.356-.168.383-.025.848.319 1.034l3.565 1.945c.096.053.198.079.304.079a.663.663 0 0 0 .333-.093l3.195-1.946c.334-.204.46-.675.278-1.05zM23.279 13.967c3.869-.073 6.983-3.17 6.983-6.983C30.262 3.17 27.148.073 23.28 0c-3.87.073-6.984 3.17-6.984 6.984 0 3.813 3.114 6.91 6.984 6.983zM42.548 26.824c-2.118-.001-4.716-.096-5.893-.242-.356-.487-.891-1.296-1.31-1.928-1.489-2.247-3.26-4.908-5.201-6.75-1.442-1.37-2.74-2.313-4.427-2.77-.006-.002-.013-.002-.02-.003l-1.771 1.862-.065-.066 1.852 12.175-1.77 2.423h-.034l-.048-.066-.049.066h-.034l-1.77-2.423 1.853-12.175-.066.066-1.77-1.862-.021.002c-1.687.458-2.985 1.401-4.427 2.77-1.94 1.843-3.712 4.504-5.2 6.75-.42.633-.955 1.442-1.311 1.93-1.176.145-3.775.24-5.893.241a2.848 2.848 0 0 0-2.845 2.853 2.848 2.848 0 0 0 2.847 2.849h.003c6.92-.005 8.11-.565 8.56-.775.9-.422 1.54-1.205 2.55-2.695v8.462c0 1.218.539 2.668.664 2.825-.02.143-.02 27.276-.02 27.276 0 1.86 1.32 3.383 3.178 3.381a3.366 3.366 0 0 0 3.366-3.37l-.003-23.428.388.001h.387l-.003 23.427A3.366 3.366 0 0 0 27.611 71c1.858.002 3.179-1.52 3.179-3.381 0 0-.002-27.133-.02-27.276.124-.157.663-1.607.663-2.825v-8.462c1.011 1.49 1.65 2.273 2.55 2.695.45.21 1.64.77 8.56.775h.003a2.848 2.848 0 0 0 2.847-2.849 2.848 2.848 0 0 0-2.845-2.853z"/>
    </g>
</svg>
