<svg xmlns="http://www.w3.org/2000/svg" width="47" height="47" viewBox="0 0 47 47">
    <path fill="#F5A623" fill-rule="evenodd" d="M0 0h46.608v46.608H0V0zm8 32.828c2.376 4.674 6.965 6.591 15 4.028 4.253-1.523 9.254-1.937 15-.942-4.288-2.766-9.17-3.609-15-1.372-5.588 1.66-10.551.947-15-1.714zm7.241-.206c2.822.646 6.831-.352 8.494-1.322 1.99-1.086 3.92-4.406 3.92-8.283v-5.463c0-1.704-2.792-1.704-2.792 0-.207 9.546-5.731 13.07-9.622 15.068zm2.857-8.16c.112.217 3.01-9.422 9.113-9.449 6.331 1.119 8.175 6.153 8.75 9.538.119.097 7.827-11.069-7.526-11.613 2.727-2.434 5.75-2.026 9.021.75-1.103-6.182-4.73-7.153-10.245-3.312-4.519-3.93-9.748-3.105-10.745 3.371 2.77-3.03 5.47-3.65 8.251-1.604-10.699.927-9.097 8.934-6.619 12.32z"/>
</svg>
