<svg xmlns="http://www.w3.org/2000/svg" width="18" height="20" viewBox="0 0 18 20">
    <path fill="#1FA7F8" fill-rule="nonzero" d="M16.071 2.5h-1.928V.625A.636.636 0 0 0 13.5 0h-1.286a.636.636 0 0 0-.643.625V2.5H6.43V.625A.636.636 0 0 0 5.786 0H4.5a.636.636 0 0 0-.643.625V2.5H1.93C.864 2.5 0 3.34 0 4.375v13.75C0 19.16.864 20 1.929 20H16.07C17.136 20 18 19.16 18 18.125V4.375C18 3.34 17.136 2.5 16.071 2.5zm0 3.75v3.125h-3.857V6.25h3.857zm-9 7.5v-3.125h3.858v3.125H7.07zM10.93 15v3.125H7.07V15h3.858zm-5.143-1.25H1.929v-3.125h3.857v3.125zM7.07 9.375V6.25h3.858v3.125H7.07zm5.143 1.25h3.857v3.125h-3.857v-3.125zM5.786 6.25v3.125H1.929V6.25h3.857zM1.929 17.89V15h3.857v3.125H2.17a.238.238 0 0 1-.241-.234zm13.901.235h-3.616V15h3.857v2.89a.238.238 0 0 1-.24.235z"/>
</svg>
