<svg xmlns="http://www.w3.org/2000/svg" width="65" height="68" viewBox="0 0 65 68">
    <path fill="#97E3ED" fill-rule="nonzero" d="M63.75 41.755C62.37 55.533 51.122 66.607 37.23 67.873 20.81 69.371 6.807 57.388 5.183 41.813H2.289c-1.76 0-2.86-1.891-1.98-3.403l6.473-11.125c.88-1.512 3.08-1.512 3.959 0l6.471 11.125c.88 1.512-.22 3.402-1.98 3.402h-2.519c1.637 11.63 12.545 20.35 25.051 18.531 9.254-1.346 16.761-8.593 18.334-17.744 2.354-13.697-8.265-25.617-21.636-25.617a21.971 21.971 0 0 0-12.117 3.613c-1.668 1.097-3.98.88-5.205-.692a3.69 3.69 0 0 1 .86-5.345 29.383 29.383 0 0 1 12.812-4.765V5.576h-2.999a1.861 1.861 0 0 1-1.868-1.854V1.854A1.86 1.86 0 0 1 27.813 0h13.905c1.032 0 1.868.83 1.868 1.854v1.868a1.861 1.861 0 0 1-1.868 1.854h-3.302v4.26c15.32 2.052 26.942 15.838 25.333 31.919zM64.39 14.7l-5.714-5.41a1.864 1.864 0 0 0-2.679.108l-1.511 1.675a1.974 1.974 0 0 0 .105 2.743l5.714 5.41c.77.728 1.968.68 2.679-.108l1.511-1.675a1.974 1.974 0 0 0-.105-2.743zM34.153 20.84v17.548H51.78c0-10.687-8.227-17.548-17.627-17.548z"/>
</svg>
