<svg xmlns="http://www.w3.org/2000/svg" width="11" height="12" viewBox="0 0 11 12">
    <path fill="#F5A623" fill-rule="nonzero" d="M5.066 5.352a.42.42 0 0 0 0-.598.432.432 0 0 0-.605 0l-2.267 2.24a1.963 1.963 0 0 0-.596 1.414c0 .537.21 1.032.596 1.414a2.035 2.035 0 0 0 2.862 0l5.119-5.058A2.755 2.755 0 0 0 11 2.792c0-.743-.292-1.445-.825-1.971a2.849 2.849 0 0 0-4.001 0L1.066 5.868A3.539 3.539 0 0 0 0 8.408c0 .96.376 1.868 1.066 2.54A3.625 3.625 0 0 0 3.636 12c.97 0 1.89-.372 2.57-1.053l2.266-2.24a.42.42 0 0 0 0-.599.432.432 0 0 0-.606 0L5.6 10.348a2.783 2.783 0 0 1-1.964.806 2.783 2.783 0 0 1-1.964-.806 2.717 2.717 0 0 1 0-3.88L6.78 1.418A1.955 1.955 0 0 1 8.169.852c.522 0 1.024.206 1.39.567.375.372.574.857.574 1.373s-.209 1.012-.575 1.373L4.44 9.223a1.19 1.19 0 0 1-1.65 0 1.141 1.141 0 0 1-.346-.815c0-.31.126-.599.345-.816l2.277-2.24z"/>
</svg>
