<svg xmlns="http://www.w3.org/2000/svg" width="480" height="295" viewBox="0 0 480 295">
    <path fill="#FFF" fill-rule="evenodd" d="M0 0h480v295H0V0zm26.17 250c-.123.044-.123.132-.123.176 0 0-.123-.176 0-.176h.123zm8.82-13c.123.132.328.132.492.22-.041.044-.123.176-.164.176-.123-.176-.205-.308-.328-.396zm3.163-7c.04.044.082.044.082.132 0 .176-.205.132-.246.22.082-.088.082-.22.164-.352zm8.038 19.308c-.082 0-.123-.044-.205-.044.082-.088.082-.176 0-.264h.123s.082.176.082.308zm286.701 25.123c-1.753-.132-3.246-.396-4.998-.22 0-.264.13-.264.454-.088 1.493.22 3.051.352 4.544.308zM198.018 25c0 .044.041.044.041.044 0 .088.082 0 .123.088.41.044-.205.528-.123.088.123-.088 0-.088 0-.176-.082 0-.082 0-.123-.044h.082zm-55.064 9c-2.573.66-5.24.704-7.997.176a32.45 32.45 0 0 0 7.997-.176zm-8.997 1h.041c0 .572 0 .572-.04 0zm-16.888 4.044c-.123.044-.123 0-.082-.044 0 0 .082 0 .082.044zM68.061 158h.246c-.082.132-.246 0-.328.132.041-.088.082-.088.082-.132zm69.895 25h.276c-.184.308.046.308-.092.385 0-.077-.092-.231-.184-.385zm-86.88 42c0 .154 0 .231-.091.308h.092V225zm1.272-66.855s.145 0 .145.044c1.236.176 2.4 0 3.49-.088-1.163.176-2.254.264-3.417.22 0-.044-.073-.044-.073-.132-.145-.044-.29 0-.509 0 .291-.088.727-.352.364-.044zM26.238 158c0 .308-.081.396-.245.264 0-.044.123-.22.246-.264zm.984 67v.077c-.046-.077-.138 0-.23-.077h.23zm3.351 22.638c-2.64-3.896-16.182-4.633-18.737-.21-2.726.105-5.28.947-7.836 2.316 6.728 6.001 15.246 4.843 22.315 8.528v-.421c.17 0 .255.105.255.105l-.255.316c.596 1.369 1.618 1.685 2.81 1.79l.256-.421h.085c-.085.21-.255.316-.34.421 10.305 4.001 20.866 6.844 31.853 8.107.852 0 1.704-.737 2.555-1.263 5.11 3.79 26.659 8.212 32.791 5.37l-.085-.21c11.668 23.584 178.518 7.475 209.69 8.633 41.734 1.58 135.712.548 151.297-5.418 15.586-5.966-9.574-18.591 4.376-29.406 14.413-11.173 13.247-82.393-1.173-101.832-9.88-13.372 9.199-36.018 0-50.443-10.39-19.057 8.818-30.429-3.276-43.695-2.64-2.843-2.982-19.163-1.96-19.163-1.704-.21-2.555-1.158-3.237-2.105-2.81-12.214-7.905-13.267-87.6-15.373l.256.422h-.255v-.422c-3.492.632-7.155-1.579-10.136 1.685l.256.421h-.256v-.42c-26.658.736-49.399.736-71.032-6.95-1.874.105-3.492.842-4.855 2.211l-.426-.21c-25.977 15.582-65.496-9.055-88.748 10.528l-.255.106c.085-.106.17 0 .255-.106-10.56 5.686-24.018-4.948-33.131 6.95h.085c-.426.42-1.022.947-1.448 1.368-3.321.316-6.558.21-9.88-.21 1.022 1.053-1.618-15.794-3.662-1.79a323.883 323.883 0 0 0-.767 4.211v-.21c-3.236 2.421-19.504 0-22.825 0l.085.21c.681.421-15.586 5.054-15.757 5.16l.085-.106C92.237 48.747 70.518 42.43 60.81 49.905c19.76 9.581 9.88 1.79 11.072 9.266-5.11 0-10.135-.422-15.16-1.264.681 3.264 2.47 3.79 4.088 4.527 1.448 0 1.363.737 2.725 1.79-.17 1.37-.17 2.317-.17 3.58-4.514 1.685-18.312-4.422-11.242 8.634-4.855 1.053-10.136-1.58-14.139 4.633 2.044.316 18.738 3.895 20.782 6.528 1.192 1.474-.682 1.158-1.193 1.474h-2.64c-6.643 1.895-7.41 5.264-2.81 12.318h-.17c5.45 6.107 9.879 7.055 17.204 7.055-.17-.527-.17-.948-.17-1.474h.17c0 .526-.341.947 0 1.474 1.533 2 10.476 3.79 12.775 3.79 2.726 2.211 4.344 6.633 7.325 8.423.34 0 .767 0 1.192.21v1.686c-1.788 2.421-3.662 4.738-5.706 6.949-13.287 0-35.09 8.212-47.61 4.316 4.173 5.897 8.346 4.423 12.094 4.528h-.085c3.832.21 7.665.316 11.498.21.425.527.851 1.053 1.362 1.475 2.385-.843-31.513 15.056-34.068 14.319-.426.632 0 1.053 0 1.474h-.34c.17-.421.17-1.053.34-1.474-2.896 0-8.262-1.895-10.135.421v.632c.51 1.684 2.129 1.369 2.98 2.316h-.17c10.987 11.582 50.847 6.739 62.771 7.054.17-.737 0-1.263-.255-1.895h.255v1.895c.937.106 1.789.211 2.81.211-.85 2.316-2.384 3.475-4.258 3.37-2.3 0-4.77.105-7.069.105-.34.21-.426.737-.34 1.158.085.21.085.526.34.526 9.624 11.582 64.134-5.054 65.496 11.898-14.223 2.106-28.361 2.211-42.755 2.211-5.28 6.001-14.309 7.054-21.378 7.054-.852 1.159-.767 2.317 0 3.37 8.261 3.474 17.12-2.422 25.636 2.316-9.454 8.634-20.27 11.371-32.535 8.212-2.47.948-4.344 1.896-4.6 5.476-3.491-.632-6.557.631-9.198 3.895-.085 3.264-3.321 7.16.767 10.108-1.959 0-4.003 0-5.792.21 1.107 1.79 3.066 1.159 4.6 1.896v.21c-2.726-2-5.622-2.737-8.773-2.105v-.211c-1.448.21-2.981.21-4.344.21v1.37h-.17c0-.317.426-.843.17-1.37a196.697 196.697 0 0 0-15.756-.315s.085 0 .085.105c-1.874.21-3.833-1.053-5.707 0 0 .737.085 1.474.256 2.106 0 .42.17 0 .426.42.085 3.58 1.788 4.528 5.025 2.949v-.421h.17l-.17.421c.766 1.58 1.874 1.685 3.151 1.58-.085-.632-.34-1.054-.34-1.58h.34c-.085.526-.511 1.053 0 1.58.34-.106.767 0 1.107.105-2.47 3.474-6.388.105-9.283 2.842 2.895 8.108 7.835 11.898 14.99 11.372-1.533 2.527-3.748 1.368-5.707 1.579v.316h-.085l.085-.316z"/>
</svg>
