<svg xmlns="http://www.w3.org/2000/svg" width="66" height="70" viewBox="0 0 66 70">
    <path fill="#F5A623" fill-rule="nonzero" d="M32.963 60.713L5.94 39.68 0 44.305 33 70l33-25.695-5.977-4.662-27.06 21.07zM33 51.39L5.977 30.357 0 25.695 33 0l33 25.695-6.013 4.662L33 51.39zM19.109 32.963c1.966 4.077 5.765 5.75 12.417 3.514 3.521-1.328 7.661-1.69 12.418-.822-3.55-2.412-7.59-3.147-12.418-1.196-4.626 1.447-8.734.826-12.417-1.496zm6.297 0c2.398.548 5.805-.299 7.218-1.121 1.692-.922 3.332-3.738 3.332-7.028V20.18c0-1.445-2.373-1.445-2.373 0-.176 8.1-4.87 11.09-8.177 12.784zm1.729-7.027c.093.183 2.513-7.977 7.61-8 5.287.948 6.827 5.209 7.307 8.075.1.081 6.537-9.37-6.285-9.831 2.278-2.06 4.803-1.715 7.534.635-.921-5.233-3.95-6.055-8.556-2.803-3.774-3.327-8.14-2.63-8.973 2.853 2.312-2.565 4.568-3.09 6.89-1.358-8.935.785-7.597 7.563-5.527 10.429z"/>
</svg>
