<svg xmlns="http://www.w3.org/2000/svg" width="172" height="52" viewBox="0 0 172 52">
    <path fill="#688AA9" fill-rule="nonzero" d="M77.093 22.412h-3.026V21h3.906v.188h.014v1.224h-.894zm-3.108 2.124H75V52h-6.394C67.166 52 66 50.82 66 49.365v-22.73C66 25.179 67.167 24 68.606 24h4.667c.09.306.379.536.712.536zm-3.47 26.622c.046 0 .091-.046.076-.108a5.39 5.39 0 0 0-3.652-3.691.083.083 0 0 0-.106.076v1.47c0 1.242 1 2.253 2.228 2.253h1.454zm.076-26.224c.015-.046-.03-.092-.076-.107h-1.454c-1.228 0-2.228 1.011-2.228 2.252v1.47c0 .046.06.092.106.077 1.758-.506 3.137-1.915 3.652-3.692zm54.403 9.365c0-.475-.238-.704-.73-.704h-3.392c-.46 0-.73-.26-.73-.705v-2.634c0-.475.27-.705.73-.705h12.43c.49 0 .728.23.728.705v2.634c0 .444-.237.705-.729.705h-3.392c-.46 0-.73.23-.73.704V45.28c0 .444-.238.705-.729.705h-2.727c-.46 0-.73-.26-.73-.705V34.3zm15.156-4.732c.46 0 .73.26.73.704v5.866c0 .444.269.704.729.704h2.33c.491 0 .73-.26.73-.704V30.27c0-.444.269-.704.729-.704h2.726c.492 0 .73.23.73.704v15.01c0 .443-.238.704-.73.704h-2.726c-.46 0-.73-.26-.73-.705v-3.706c0-.475-.238-.705-.729-.705h-2.33c-.46 0-.73.23-.73.705v3.706c0 .444-.238.705-.729.705h-2.727c-.46 0-.73-.26-.73-.705V30.271c0-.475.239-.704.73-.704h2.727zm24.113 15.606c0 .52-.237.796-.729.796h-2.727c-.46 0-.729-.23-.729-.704v-2.037c0-.475-.238-.705-.73-.705h-2.092c-.46 0-.73.23-.73.705v2.037c0 .475-.237.704-.728.704h-2.727c-.46 0-.73-.275-.73-.796v-9.94c0-2.956.492-6.095 5.946-6.095 5.47 0 5.945 3.14 5.945 6.095v9.94h.031zm-4.185-9.94c0-1.133-.174-1.684-1.776-1.684-1.6 0-1.775.566-1.775 1.684v2.558c0 .444.27.704.73.704h2.092c.491-.03.729-.26.729-.72v-2.542zm11.098-5.666c.491 0 .729.23.729.704v15.01c0 .443-.238.704-.73.704h-2.663c-.46 0-.73-.26-.73-.705V30.271c0-.475.27-.704.73-.704h2.664zM4.878 33.928c0-.483-.235-.717-.721-.717H.8c-.455 0-.722-.265-.722-.717V29.81c0-.483.267-.717.722-.717h12.298c.486 0 .722.234.722.717v2.683c0 .452-.236.717-.722.717H9.725c-.454 0-.721.234-.721.717v11.183c0 .452-.235.717-.722.717H5.6c-.455 0-.722-.265-.722-.717V33.928zm14.95-4.819c.486 0 .721.234.721.718V45.11c0 .452-.235.717-.722.717h-2.635c-.455 0-.721-.265-.721-.717V29.827c0-.484.266-.718.721-.718h2.635zm10.007 0c.44 0 .675.234.769.64l1.71 6.956c.047.234.235.234.282 0l1.71-6.956c.094-.406.33-.64.769-.64h4.972c.486 0 .722.234.722.718V45.11c0 .452-.236.717-.722.717H37.35c-.455 0-.722-.265-.722-.717v-9.405c0-.171-.22-.187-.266-.03l-2.322 9.529c-.094.405-.36.623-.8.623h-1.584c-.44 0-.69-.218-.8-.623l-2.337-9.53c-.047-.171-.267-.14-.267.031v9.405c0 .452-.235.717-.722.717h-2.698c-.486 0-.721-.265-.721-.717V29.827c0-.484.235-.718.721-.718h5.004zm25.35 0c.486 0 .72.234.72.718v2.682c0 .452-.234.718-.72.718h-5.82c-.455 0-.722.234-.722.717v.764c0 .453.267.718.722.718h3.717c.487 0 .722.234.722.717v2.683c0 .452-.235.717-.722.717h-3.717c-.455 0-.722.234-.722.718v.764c0 .452.267.717.722.717h5.82c.486 0 .72.234.72.718v2.682c0 .484-.234.718-.72.718H45.097c-.455 0-.722-.266-.722-.718V29.858c0-.484.267-.718.722-.718h10.086v-.03zm20.842 1.444c-.332 0-.6-.316-.6-.706 0-.39.268-.706.6-.706.331 0 .6.316.6.706 0 .39-.269.706-.6.706zm0 7.216c-.332 0-.6-.316-.6-.706 0-.39.268-.706.6-.706.331 0 .6.316.6.706 0 .39-.269.706-.6.706zm0 7.215c-.332 0-.6-.316-.6-.706 0-.39.268-.705.6-.705.331 0 .6.316.6.705 0 .39-.269.706-.6.706zm25.226-22.79c.268.282.536.564.836.83h-3.331v-1.41h1.99c.157.188.33.392.505.58zm6.647 21.724a27.202 27.202 0 0 0 3.947-4.667v9.945a2.705 2.705 0 0 1-2.715 2.694h-6.821V23.807h.647a16.317 16.317 0 0 0 5.7 2.945 31.924 31.924 0 0 1-2.59 15.897c-.142.345-.11.752.095 1.065.205.33.569.517.948.517.3 0 .584-.11.789-.313zm3.095 4.809v-1.504c0-.047-.063-.094-.11-.078a5.563 5.563 0 0 0-3.806 3.774.085.085 0 0 0 .079.11h1.516a2.316 2.316 0 0 0 2.32-2.302zm2.494-41.1c-.236 2.538-2.273 3.587-2.478 3.713-.016 0-.016-.016-.016-.016.079-.188.537-1.44-.363-1.832-.143.078-.71.375-1.374.375-.442 0-.916-.14-1.326-.563-.885-.909-.158-1.88.094-2.177-.126-1.238.9-2.256 1.863-2.6a3.238 3.238 0 0 1 1.09-.204c1.721 0 2.668 1.644 2.51 3.305zm8.353 15.977a.495.495 0 0 1-.268.5c-.71.455-2.195 1.207-4.342 1.207h-.221a9.729 9.729 0 0 1-1.627-.172c-.3 7.032-3.426 13.485-8.4 18.106 2.369-5.263 3.38-11.215 2.669-17.355-5.906-1.362-10.61-6.265-11.4-12.577a14.288 14.288 0 0 1 .158-4.652h.015c.553-2.913 2.448-6.17 5.574-7.612.016 0 .016-.015.032-.015l.047-.032c4.579-2.098 6.79.251 7.358 1.018.284.376.505.784.647 1.207.08.234-.126.47-.363.407-.11-.032-.205-.094-.237-.204a4.1 4.1 0 0 0-.552-1.034c-1.327-1.785-3.774-2.098-6.553-.83-2.384 1.66-3.11 4.809-1.674 7.33a5.673 5.673 0 0 0 2.527 2.334c.126-.971.615-1.738 1.357-2.161.064-.032.237-.11.348-.157.095.266.252.548.505.815.474.485 1.09.751 1.784.751.49 0 .948-.14 1.263-.266.111.298-.11.846-.11.846a.615.615 0 0 0 .063.595.683.683 0 0 0 .537.282c.11 0 .205-.016.284-.063a5.25 5.25 0 0 0 1.705-1.378c3.71 4.746 1.595 9.899 8.148 12.53l.379.141c.19.078.316.235.347.439zm-4.784 1.08c1.926.032 3.3-.564 4.026-1.002a9.7 9.7 0 0 1-2.32-1.16c-4.738.565-9.364-1.127-12.743-4.588a10.627 10.627 0 0 0 2.479 2.96c2.984 2.443 5.874 3.728 8.558 3.79zm-10.09-21.348c.269.501.095 1.128-.394 1.394a1.038 1.038 0 0 1-1.406-.391 1.02 1.02 0 0 1 .395-1.394 1.038 1.038 0 0 1 1.405.391zm-8.97 20.916H99V52H78V24.252h1.018a.76.76 0 0 0 .76-.774v-1.207c1.261-.093 2.477-.727 3.373-1.748C84.564 18.898 86.464 18 88.515 18c2.036 0 3.951.898 5.364 2.523.897 1.02 2.097 1.655 3.358 1.748v1.207a.76.76 0 0 0 .76.774zm-3.83 17.457v-2.817h-1.383v-3.126H89.67v3.126h-2.173l3.83-7.815-2.812-1.083-5.5 11.189.303.526h6.352v2.754h3.115V41.71h1.383zM82.832 23.71H94.23a7.474 7.474 0 0 1-2.037-1.656c-.972-1.13-2.279-1.75-3.662-1.75-1.382 0-2.69.62-3.662 1.75a7.709 7.709 0 0 1-2.036 1.656zM100.5 30a.5.5 0 1 1 0-1 .5.5 0 0 1 0 1zm0 8a.5.5 0 1 1 0-1 .5.5 0 0 1 0 1zm0 7a.5.5 0 1 1 0-1 .5.5 0 0 1 0 1z"/>
</svg>
