<svg xmlns="http://www.w3.org/2000/svg" width="27" height="23" viewBox="0 0 27 23">
    <path fill="none" fill-rule="nonzero" stroke="#1FA7F8" stroke-width="1.9" d="M13.222 21.5c-.348 0-.683-.116-.945-.327a278.24 278.24 0 0 0-2.78-2.198l-.004-.004c-2.462-1.93-4.589-3.596-6.069-5.238C1.77 11.897 1 10.157 1 8.256c0-1.847.689-3.551 1.94-4.799C4.204 2.195 5.94 1.5 7.828 1.5c1.41 0 2.703.41 3.84 1.22a7.536 7.536 0 0 1 1.553 1.49 7.537 7.537 0 0 1 1.553-1.49 6.499 6.499 0 0 1 3.84-1.22c1.889 0 3.625.695 4.89 1.957 1.25 1.248 1.94 2.952 1.94 4.799 0 1.901-.77 3.641-2.425 5.477-1.48 1.642-3.606 3.308-6.068 5.238-.842.66-1.795 1.407-2.785 2.203a1.51 1.51 0 0 1-.945.326z"/>
</svg>
