<svg xmlns="http://www.w3.org/2000/svg" width="15" height="15" viewBox="0 0 15 15">
    <path fill="#F5A623" fill-rule="evenodd" d="M7.514 4.549c-1.663 0-3.012 1.306-3.012 2.92 0 1.61 1.35 2.918 3.012 2.918 1.664 0 3.013-1.307 3.013-2.919 0-1.613-1.349-2.92-3.013-2.92zm5.79 1.794h-1.32c.126.409.194.84.194 1.288 0 2.495-2.089 4.518-4.664 4.518-2.574 0-4.663-2.023-4.663-4.518 0-.448.069-.879.193-1.288H1.668v6.337c0 .329.268.595.595.595H12.71a.596.596 0 0 0 .595-.595V6.343zm-2.377-4.677a.678.678 0 0 0-.675.676v1.616c0 .372.303.676.675.676h1.696a.678.678 0 0 0 .675-.676V2.342a.678.678 0 0 0-.675-.676h-1.696zM1.926 0h11.149A1.93 1.93 0 0 1 15 1.925v11.15A1.93 1.93 0 0 1 13.075 15H1.926A1.93 1.93 0 0 1 0 13.075V1.925C0 .866.867 0 1.926 0z"/>
</svg>
