<svg xmlns="http://www.w3.org/2000/svg" width="47" height="47" viewBox="0 0 47 47">
    <g fill="none" fill-rule="evenodd">
        <rect width="45.7" height="45.7" x=".65" y=".65" stroke="#7D9BB7" stroke-width="1.3" rx="22.85"/>
        <g fill="#A7BFD6">
            <path fill-rule="nonzero" d="M29.891 14.613h-11.89a3.446 3.446 0 0 0-3.441 3.442v11.89A3.446 3.446 0 0 0 18 33.387h11.89a3.446 3.446 0 0 0 3.442-3.442v-11.89a3.446 3.446 0 0 0-3.442-3.442zM23.946 30.18a6.187 6.187 0 0 1-6.18-6.18 6.187 6.187 0 0 1 6.18-6.18 6.187 6.187 0 0 1 6.18 6.18 6.188 6.188 0 0 1-6.18 6.18zm6.38-11.082a1.464 1.464 0 0 1-1.463-1.462c0-.807.656-1.463 1.462-1.463.807 0 1.463.656 1.463 1.463 0 .806-.656 1.462-1.463 1.462z"/>
            <path d="M23.946 20.432A3.573 3.573 0 0 0 20.377 24a3.574 3.574 0 0 0 3.57 3.569 3.573 3.573 0 0 0 3.568-3.57c0-1.966-1.601-3.567-3.569-3.567z"/>
        </g>
    </g>
</svg>
