<svg xmlns="http://www.w3.org/2000/svg" width="18" height="15" viewBox="0 0 18 15">
    <g fill="#F5A623" fill-rule="nonzero">
        <path d="M4.58 5.295a2.29 2.29 0 0 0 2.29-2.291c0-.79.277-1.513-.333-1.923C6.172.832 4.566.714 4.092.714c-.565 0-1.298.46-1.698.8-.496.419-.105.788-.105 1.489A2.29 2.29 0 0 0 4.58 5.295zM2.984 2.779c.421-.076.707.062.707.062l.703-.342s-.358.517-.037.342c.716-.24 1.517-.14 1.924-.06.014.09.027.181.027.276 0 .943-.749 1.705-1.678 1.705-.924 0-1.673-.762-1.673-1.705 0-.095.012-.186.027-.278zM15.591 2.773c-.01-.13-.021-.26-.05-.386-.09-.803-.809-2.435-2.871-2.386-1.777.042-2.165 1.38-2.259 2.194-.062.2-.103.41-.117.627-2.311.404-2.057 2.75-.645 2.79-.135-1.225.45-1.96.675-2.197a2.666 2.666 0 0 0 2.622 2.237 2.667 2.667 0 0 0 2.585-2.042c.217.382.58 1.163.492 2.002 2.223-.019 1.13-2.56-.432-2.839zm-2.645 2.124a1.915 1.915 0 0 1-1.908-1.872c.38-.138.66-.795.66-.795s.226.077.226.82C12.317 3.187 13 1.897 13 1.897v1.016c.433.119 1.8-.038 1.8-.038l.051.042c0 .022.007.044.007.066a1.913 1.913 0 0 1-1.913 1.914zM13.674 5.714h-2.065L8.86 9.03 6.196 5.756H3.17L0 9.236l.664.685 2.27-1.937v3.756h.455v2.855h-.29v.335h1.318v-3.19h.494v3.19h1.315v-.335h-.289V11.74h.552V8.055l1.815 1.863.741-.183.41.103 2.056-2.352.117.932-1.909 3.28h2.202v2.856h-.29v.332h1.317v-.332h.001v-2.856h.492V14.886h1.318v-.332h-.29v-2.856h1.707l-1.682-3.28.092-1.147 1.607 2.153 1.064-.265-2.547-3.445z"/>
    </g>
</svg>
