<svg xmlns="http://www.w3.org/2000/svg" width="66" height="66" viewBox="0 0 66 66">
    <g fill="#97E3ED" fill-rule="nonzero">
        <path d="M56.849 46.664a1.941 1.941 0 0 0-1.952 1.934v5.8h-15.74v-3.867h9.886a1.941 1.941 0 0 0 1.952-1.933V17.53a1.941 1.941 0 0 0-1.952-1.933h-7.935a1.941 1.941 0 0 0-1.951 1.933c0 1.069.872 1.934 1.951 1.934h5.984v27.2h-13.79a1.941 1.941 0 0 0-1.95 1.933c0 1.068.872 1.933 1.95 1.933h1.952v3.867H11.708V29.133a1.941 1.941 0 0 0-1.951-1.934 1.941 1.941 0 0 0-1.952 1.934v17.531H3.903V5.801c0-1.067.874-1.934 1.951-1.934h39.287a1.941 1.941 0 0 0 1.951-1.933A1.941 1.941 0 0 0 45.141 0H5.854C2.626 0 0 2.602 0 5.8v54.4C0 63.397 2.626 66 5.854 66h7.935a1.941 1.941 0 0 0 1.952-1.934 1.941 1.941 0 0 0-1.952-1.933H5.854a1.944 1.944 0 0 1-1.951-1.934v-9.668h3.902v5.801c0 1.069.873 1.934 1.952 1.934h47.092a1.941 1.941 0 0 0 1.951-1.934v-7.734a1.941 1.941 0 0 0-1.951-1.934z"/>
        <path d="M60.146 0h-3.903a1.941 1.941 0 0 0-1.951 1.934c0 1.068.873 1.933 1.951 1.933h3.903c1.077 0 1.951.867 1.951 1.934v9.797h-3.902v-5.93a1.941 1.941 0 0 0-1.952-1.934H9.151A1.941 1.941 0 0 0 7.2 9.668v7.863c0 1.069.873 1.934 1.951 1.934a1.941 1.941 0 0 0 1.952-1.934v-5.93h43.189v25.266c0 1.069.873 1.934 1.951 1.934a1.941 1.941 0 0 0 1.952-1.934V19.465h3.902v40.734a1.944 1.944 0 0 1-1.951 1.934H24.892a1.941 1.941 0 0 0-1.951 1.933c0 1.07.872 1.934 1.951 1.934h35.254C63.374 66 66 63.398 66 60.2V5.8C66 2.603 63.374 0 60.146 0z"/>
        <path d="M40.114 23.305h-9.428v-3.853h1.885c1.043 0 1.886-.861 1.886-1.926 0-1.064-.843-1.926-1.886-1.926H17.486c-1.043 0-1.886.862-1.886 1.926v30.948c0 1.064.843 1.926 1.886 1.926h7.543c1.042 0 1.885-.862 1.885-1.926 0-1.065-.843-1.926-1.885-1.926H19.37V19.452h7.543v3.853H25.03c-1.043 0-1.886.861-1.886 1.926v3.852c0 1.065.843 1.927 1.886 1.927 1.042 0 1.885-.862 1.885-1.927v-1.926H38.23v1.926c0 1.065.843 1.927 1.885 1.927 1.043 0 1.886-.862 1.886-1.927v-3.852c0-1.065-.843-1.926-1.886-1.926z"/>
        <path d="M41.16 34.8c-1.128 0-2.04.805-2.04 1.8v1.8H26.88v-1.8c0-.995-.912-1.8-2.04-1.8-1.128 0-2.04.805-2.04 1.8v3.6c0 .995.912 1.8 2.04 1.8h16.32c1.128 0 2.04-.805 2.04-1.8v-3.6c0-.995-.912-1.8-2.04-1.8z"/>
    </g>
</svg>
