<svg xmlns="http://www.w3.org/2000/svg" xmlns:xlink="http://www.w3.org/1999/xlink" width="142" height="44" viewBox="0 0 142 44">
    <defs>
        <path id="a" d="M0 .038h22.3v28.905H0z"/>
    </defs>
    <g fill="none" fill-rule="evenodd">
        <g transform="translate(0 3.22)">
            <mask id="b" fill="#fff">
                <use xlink:href="#a"/>
            </mask>
            <path fill="#F5A623" d="M22.3 24.952l-.3 3.197c-1.882.53-3.934.794-6.154.794-5.267 0-9.224-1.348-11.873-4.045C1.324 22.202 0 18.908 0 15.016 0 10.94 1.477 7.424 4.432 4.47 7.387 1.515 11.36.04 16.352.04c1.377 0 2.832.192 4.363.579l-.643 3.411c-1.761-.515-3.33-.772-4.708-.772-3.706 0-6.515 1.073-8.428 3.219-1.915 2.146-2.871 4.771-2.871 7.875 0 3.162 1.102 5.873 3.307 8.133 2.204 2.26 5.251 3.39 9.14 3.39 1.485 0 3.414-.307 5.787-.922" mask="url(#b)"/>
        </g>
        <path fill="#F5A623" d="M43.294 20.567c0-2.161-.593-4.083-1.78-5.766-1.188-1.683-2.879-2.525-5.072-2.525-2.178 0-3.853.797-5.025 2.39-1.172 1.593-1.759 3.442-1.759 5.548 0 2.174.594 4.1 1.781 5.776 1.188 1.676 2.886 2.514 5.094 2.514 2.178 0 3.85-.8 5.014-2.4 1.165-1.6 1.747-3.446 1.747-5.537m3.926-.728c0 3.547-1.112 6.314-3.336 8.301-2.223 1.988-4.84 2.982-7.85 2.982-2.814 0-5.23-.88-7.25-2.64-2.018-1.758-3.028-4.237-3.028-7.437 0-3.574 1.115-6.365 3.347-8.374 2.23-2.008 4.851-3.012 7.861-3.012 2.814 0 5.226.89 7.238 2.67 2.012 1.78 3.018 4.283 3.018 7.51M74.049 28.194l-.302 3.205c-1.903.53-3.977.796-6.22.796-5.323 0-9.323-1.352-12-4.055-2.677-2.703-4.015-6.005-4.015-9.906 0-4.087 1.493-7.61 4.48-10.573 2.986-2.96 7-4.441 12.045-4.441 1.393 0 2.863.193 4.41.58l-.65 3.42c-1.78-.516-3.365-.774-4.758-.774-3.744 0-6.584 1.076-8.518 3.227-1.934 2.151-2.9 4.783-2.9 7.894 0 3.17 1.113 5.887 3.342 8.153 2.227 2.266 5.306 3.399 9.237 3.399 1.5 0 3.45-.308 5.849-.925M94.806 20.567c0-2.161-.593-4.083-1.78-5.766-1.188-1.683-2.878-2.525-5.071-2.525-2.178 0-3.854.797-5.026 2.39-1.172 1.593-1.758 3.442-1.758 5.548 0 2.174.593 4.1 1.78 5.776 1.188 1.676 2.886 2.514 5.094 2.514 2.178 0 3.85-.8 5.014-2.4 1.165-1.6 1.747-3.446 1.747-5.537m3.926-.728c0 3.547-1.112 6.314-3.336 8.301-2.223 1.988-4.84 2.982-7.85 2.982-2.813 0-5.23-.88-7.249-2.64-2.019-1.758-3.029-4.237-3.029-7.437 0-3.574 1.116-6.365 3.347-8.374 2.23-2.008 4.851-3.012 7.862-3.012 2.813 0 5.225.89 7.237 2.67 2.011 1.78 3.018 4.283 3.018 7.51M9.71 9.334a1.073 1.073 0 1 0 2.044.65 1.073 1.073 0 0 0-2.045-.65M14.974 11.056a1.073 1.073 0 1 1-2.045-.65 1.073 1.073 0 0 1 2.045.65M11.729 13.902a1.609 1.609 0 1 1-3.067-.974 1.609 1.609 0 0 1 3.067.974M12.878 25.756s-2.652-.654-4.318-2.62c-1.665-1.965-2.121-4.892-2.121-4.892s.91 2.242 2.575 4.207c1.666 1.965 3.864 3.305 3.864 3.305M33.456 39.752c.123.021.252.042.388.062.135.02.284.03.446.03.368 0 .678-.059.93-.174.251-.116.456-.27.614-.46.157-.19.271-.408.341-.655.07-.246.105-.5.105-.763 0-.275-.038-.517-.115-.724a1.495 1.495 0 0 0-.315-.521 1.272 1.272 0 0 0-.48-.315 1.713 1.713 0 0 0-.607-.105c-.096 0-.204.01-.325.03-.12.02-.24.046-.358.078a2.542 2.542 0 0 0-.341.122c-.11.048-.204.1-.283.157v3.238zm-1.26-7.557h1.26v2.36c0 .056 0 .13-.003.222l-.007.285c-.002.099-.005.194-.01.286a2.492 2.492 0 0 1-.02.229c.093-.057.2-.11.323-.16a2.9 2.9 0 0 1 .39-.128 4.36 4.36 0 0 1 .427-.086c.147-.022.288-.033.424-.033.407 0 .77.063 1.09.187.32.125.59.3.811.528.221.227.39.497.506.81.116.312.174.658.174 1.038 0 .459-.075.876-.223 1.252-.15.375-.36.697-.63.963a2.767 2.767 0 0 1-.99.616 3.72 3.72 0 0 1-1.303.216 6.89 6.89 0 0 1-.64-.03 8.381 8.381 0 0 1-1.153-.186 5.036 5.036 0 0 1-.427-.118v-8.25zM38.634 35.415h1.117v3.249c0 .366.068.65.205.85.137.2.344.3.622.3.123 0 .244-.016.362-.05.117-.035.228-.08.332-.138a2.251 2.251 0 0 0 .538-.412v-3.8h1.117v5.251h-1.082l-.035-.524c-.08.08-.171.16-.272.236a2.035 2.035 0 0 1-.726.349c-.14.036-.29.054-.448.054-.59 0-1.026-.173-1.308-.521-.281-.347-.422-.854-.422-1.519v-3.325zM46.328 38.025c0 .306.036.57.11.792.072.223.172.406.298.55.127.144.274.251.441.32.167.07.345.105.534.105.163 0 .319-.02.467-.062a2.478 2.478 0 0 0 .755-.353c.103-.072.191-.139.264-.2v-2.696a1.196 1.196 0 0 0-.206-.134 2.054 2.054 0 0 0-.286-.124 2.527 2.527 0 0 0-.338-.092 1.872 1.872 0 0 0-.366-.036c-.21 0-.417.032-.618.095a1.35 1.35 0 0 0-.537.32 1.61 1.61 0 0 0-.377.596c-.094.247-.141.553-.141.92zm4.111 2.638h-1.19l-.039-.472a2.337 2.337 0 0 1-.34.223 3.191 3.191 0 0 1-.891.317c-.166.033-.334.05-.506.05-.347 0-.667-.06-.959-.18a2.105 2.105 0 0 1-.759-.53 2.456 2.456 0 0 1-.502-.868 3.634 3.634 0 0 1-.18-1.197c0-.428.065-.816.193-1.165.129-.349.312-.648.55-.897.238-.248.528-.44.869-.575.34-.135.721-.203 1.142-.203a2.902 2.902 0 0 1 1.37.34v-3.31h1.242v8.467zM52.806 38.416c0 .288.03.532.092.732.061.2.15.364.266.49.116.127.257.218.424.275.166.057.354.085.564.085.228 0 .471-.053.73-.16.258-.107.503-.258.735-.454v-2.989a2.897 2.897 0 0 0-.387-.058 5.006 5.006 0 0 0-.447-.02c-.368 0-.678.06-.93.18-.251.12-.455.278-.61.474-.156.196-.267.42-.335.67-.068.25-.102.51-.102.775m-1.294.039c0-.458.075-.874.224-1.249a2.71 2.71 0 0 1 .63-.958c.272-.263.602-.468.992-.614.39-.146.823-.22 1.3-.22.219 0 .434.01.644.03.21.02.411.045.604.075s.372.067.539.108c.166.042.31.084.433.128V40.6c0 .558-.05 1.05-.148 1.474-.098.425-.264.78-.496 1.066-.232.285-.538.5-.92.644-.38.144-.853.216-1.418.216-.328 0-.643-.022-.945-.066a4.633 4.633 0 0 1-.821-.19V42.68c.332.1.654.177.965.229.31.052.609.078.893.078.324 0 .591-.057.801-.173.21-.115.377-.273.5-.474.122-.2.208-.436.256-.706.048-.27.072-.56.072-.87v-.418a3.826 3.826 0 0 1-.788.431 2.5 2.5 0 0 1-.946.17c-.39 0-.732-.057-1.028-.173a1.967 1.967 0 0 1-.742-.497c-.2-.216-.349-.477-.45-.784a3.317 3.317 0 0 1-.15-1.037M61.842 36.353c-.421 0-.765.101-1.03.303-.266.202-.442.497-.53.885h2.857c-.022-.388-.145-.683-.368-.885-.224-.202-.534-.303-.929-.303m-2.818 1.713a2.8 2.8 0 0 1 .204-1.085c.136-.327.329-.606.577-.837.247-.232.545-.411.892-.538a3.343 3.343 0 0 1 1.159-.191c.416 0 .782.057 1.096.172.313.115.578.278.793.49.215.213.376.474.484.782.107.309.161.657.161 1.045v.513h-4.135c.022.212.08.41.175.59.094.182.222.337.382.466.16.13.349.231.566.304.217.073.458.11.72.11.155 0 .318-.014.491-.042a4.38 4.38 0 0 0 .534-.118c.182-.052.364-.116.546-.191.182-.075.357-.163.524-.263v.945a4.82 4.82 0 0 1-1.057.415 4.97 4.97 0 0 1-1.267.147c-.44 0-.834-.061-1.185-.184a2.46 2.46 0 0 1-.896-.535 2.333 2.333 0 0 1-.566-.853 3.108 3.108 0 0 1-.198-1.142M67.531 40.561a1.54 1.54 0 0 1-.459.165c-.179.036-.366.054-.56.054-.451 0-.774-.134-.968-.401-.195-.268-.291-.678-.291-1.23v-2.677h-.863v-.798h.896a48.924 48.924 0 0 0 .375-1.333h.667v1.333h1.282v.798h-1.282v2.854a.68.68 0 0 0 .123.423.423.423 0 0 0 .358.161c.138 0 .267-.007.386-.021.12-.014.232-.032.336-.052v.724zM75.044 40.561c-.128.073-.28.128-.46.165-.179.036-.365.054-.56.054-.451 0-.774-.134-.968-.401-.194-.268-.291-.678-.291-1.23v-2.677h-.863v-.798h.896a52.058 52.058 0 0 0 .375-1.333h.667v1.333h1.282v.798H73.84v2.854a.68.68 0 0 0 .123.423.424.424 0 0 0 .358.161c.138 0 .267-.007.386-.021.12-.014.232-.032.337-.052v.724zM80.372 38.079c0-.567-.123-.995-.37-1.282-.246-.288-.606-.432-1.078-.432-.476 0-.848.148-1.115.444-.267.296-.4.728-.4 1.295 0 .27.035.514.104.729.07.214.17.396.302.544.132.147.29.261.478.34.187.08.397.12.631.12.472 0 .832-.15 1.079-.451.246-.3.37-.736.37-1.307m1.188 0c0 .404-.064.773-.19 1.107a2.409 2.409 0 0 1-.543.853 2.398 2.398 0 0 1-.853.547c-.335.13-.712.194-1.13.194-.403 0-.768-.062-1.094-.187a2.386 2.386 0 0 1-.835-.529 2.316 2.316 0 0 1-.533-.828 3.003 3.003 0 0 1-.188-1.088c0-.43.064-.813.191-1.151.127-.338.311-.625.551-.86.24-.236.532-.415.875-.538a3.43 3.43 0 0 1 1.161-.184c.415 0 .783.06 1.103.181.32.121.59.296.81.525.22.23.387.51.502.838.115.33.173.703.173 1.12M83.707 35.415h1.117v3.249c0 .366.068.65.205.85.137.2.344.3.622.3.124 0 .244-.016.362-.05.117-.035.228-.08.332-.138a2.249 2.249 0 0 0 .538-.412v-3.8H88v5.251h-1.082l-.035-.524c-.08.08-.171.16-.272.236a1.964 1.964 0 0 1-.725.35 1.79 1.79 0 0 1-.449.053c-.59 0-1.026-.173-1.307-.521-.282-.347-.423-.854-.423-1.519v-3.325zM92.542 35.415c.144 0 .284.016.418.048s.27.073.406.124v.997a3.33 3.33 0 0 0-.46-.074 4.983 4.983 0 0 0-.46-.022c-.162 0-.3.035-.412.105a.797.797 0 0 0-.272.281 1.29 1.29 0 0 0-.147.41c-.03.155-.044.318-.044.488v3.008h-1.227V37.3c0-.159-.006-.324-.019-.5a11.658 11.658 0 0 0-.048-.504 8.2 8.2 0 0 0-.064-.444 3.471 3.471 0 0 0-.067-.316h1.035c.021.038.043.09.064.156a3.1 3.1 0 0 1 .06.218c.02.078.038.163.055.252.017.09.03.177.038.262.064-.106.132-.218.205-.335.072-.118.155-.226.249-.326.093-.1.197-.183.31-.25a.741.741 0 0 1 .38-.098M97.659 39.223c0 .221-.037.427-.108.616-.072.19-.18.355-.326.494-.146.14-.328.25-.548.329a2.27 2.27 0 0 1-.77.118c-.288 0-.56-.038-.816-.115a1.933 1.933 0 0 1-.652-.329v-1.038a3.49 3.49 0 0 0 .71.404c.129.052.255.093.379.125.124.031.239.047.343.047.253 0 .437-.059.553-.175a.58.58 0 0 0 .175-.426.73.73 0 0 0-.035-.234.48.48 0 0 0-.131-.194 1.157 1.157 0 0 0-.268-.178 4.376 4.376 0 0 0-.44-.188 3.494 3.494 0 0 1-.614-.303 1.576 1.576 0 0 1-.395-.35c-.1-.128-.17-.265-.213-.413a1.74 1.74 0 0 1-.064-.485c0-.225.046-.43.137-.616.091-.185.215-.345.372-.479.158-.133.342-.236.554-.31.211-.072.437-.108.678-.108.217 0 .43.023.64.068.21.046.413.125.611.238v.938a3.789 3.789 0 0 0-.602-.228 2.27 2.27 0 0 0-.626-.09c-.24 0-.422.053-.544.162a.526.526 0 0 0-.184.412c0 .071.013.138.038.2a.52.52 0 0 0 .131.182c.062.058.148.118.256.178.109.06.247.122.414.185.233.087.433.18.602.278.169.098.309.207.42.328.11.121.192.26.244.416.052.157.079.337.079.541M103.024 33.268c5.73 3.866 12.12 4.9 19.317 2.49 7.509-3.248 13.795-2.024 19.318 1.992-7.4-1.444-13.84-.843-19.318 1.37-10.348 3.722-16.257.937-19.317-5.852"/>
        <path fill="#F5A623" d="M112.683 34.062c5.045-2.72 12.208-7.52 12.477-20.517 0-2.32 3.62-2.32 3.62 0v7.438c0 5.28-2.503 9.8-5.083 11.279-2.157 1.32-7.356 2.68-11.014 1.8"/>
        <path fill="#F5A623" d="M115.114 22.415c.148.295 4.013-12.83 12.154-12.866 8.445 1.523 10.904 8.377 11.67 12.987.16.131 10.44-15.071-10.038-15.813 3.638-3.313 7.671-2.758 12.033 1.022-1.471-8.417-6.308-9.74-13.665-4.51-6.027-5.35-13.001-4.228-14.331 4.59 3.693-4.126 7.296-4.97 11.005-2.184-14.27 1.263-12.134 12.165-8.828 16.774"/>
    </g>
</svg>
