<?xml version="1.0" encoding="utf-8"?>
<!-- Generator: Adobe Illustrator 19.1.0, SVG Export Plug-In . SVG Version: 6.00 Build 0)  -->
<svg version="1.1" xmlns="http://www.w3.org/2000/svg" xmlns:xlink="http://www.w3.org/1999/xlink" x="0px" y="0px"
	 viewBox="0 0 1125.9 350" style="enable-background:new 0 0 1125.9 350;" xml:space="preserve">
<style type="text/css">
	.st0{fill:#743F36;}
	.st1{fill:#F7B237;}
	.st2{fill:#FFFFFF;}
	.st3{fill:#A86538;}
	.st4{fill:#008400;}
	.st5{fill:#8D37AA;}
	.st6{fill:#EF4136;}
	.st7{fill:#FFCD2E;}
	.st8{fill:#FF7600;}
	.st9{fill:#231F20;}
	.st10{fill:#00C675;}
	.st11{fill:#BCBEC0;}
	.st12{fill:#58595B;}
	.st13{fill:#D1D3D4;}
	.st14{fill:#939598;}
	.st15{fill:#6D6E71;}
</style>
<g id="Layer_1">
	<path class="st0" d="M707.1,153.3H666v-7.2h-27.5c-9.1,0-17.9-4.1-24.3-11.4c-9.3-10.5-21.9-16.3-35.3-16.3c0,0,0,0,0,0
		c-13.5,0-26,5.8-35.3,16.3c-6.4,7.2-15.3,11.4-24.3,11.4h-26.6v7.2h-41.1c-9.5,0-17.2,7.7-17.2,17.2v148.4
		c0,9.5,7.7,17.2,17.2,17.2h255.6c9.5,0,17.2-7.7,17.2-17.2V170.5C724.3,161,716.6,153.3,707.1,153.3z M554.7,144.6
		c6.4-7.3,15-11.3,24.1-11.3s17.7,4,24.1,11.3c3,3.4,6.4,6.3,10,8.7h-68.2C548.4,150.9,551.7,148,554.7,144.6z"/>
	<path class="st1" d="M724.3,183.9v-13.4c0-9.5-7.7-17.2-17.2-17.2h-13.4C696.5,168.9,708.8,181.1,724.3,183.9L724.3,183.9z
		 M724.3,183.9"/>
	<path class="st1" d="M724.3,318.9v-13.4c-15.5,2.8-27.8,15-30.6,30.6h13.4C716.6,336.1,724.3,328.4,724.3,318.9L724.3,318.9z
		 M724.3,318.9"/>
	<path class="st1" d="M434.3,183.9c15.6-2.8,27.8-15,30.6-30.6h-13.4c-9.5,0-17.2,7.7-17.2,17.2V183.9z M434.3,183.9"/>
	<path class="st1" d="M434.3,305.5v13.4c0,9.5,7.7,17.2,17.2,17.2h13.4C462.1,320.5,449.8,308.3,434.3,305.5L434.3,305.5z
		 M434.3,305.5"/>
	<g>
		<path class="st2" d="M542.6,266.2l36.2-72.3l18.5,7l-25.2,50.5h14.3v-20.2h20.5v20.2h9.1v18.2h-9.1v17.8h-20.5v-17.8h-41.8
			L542.6,266.2z"/>
	</g>
	<g>
		<rect x="491.2" y="150.4" class="st3" width="21" height="185.7"/>
		<path class="st1" d="M488.1,143.3h27.1c0.6,0,1.1,0.5,1.1,1.1v8.3c0,0.6-0.5,1.1-1.1,1.1h-27.1c-0.6,0-1.1-0.5-1.1-1.1v-8.3
			C487,143.8,487.5,143.3,488.1,143.3z"/>
		<circle class="st1" cx="501.7" cy="199.2" r="3.8"/>
		<circle class="st1" cx="501.7" cy="245.2" r="3.8"/>
		<circle class="st1" cx="501.7" cy="291.2" r="3.8"/>
	</g>
	<g>
		<rect x="645.4" y="150.4" class="st3" width="21" height="185.7"/>
	</g>
	<path class="st1" d="M642.3,143.3h27.1c0.6,0,1.1,0.5,1.1,1.1v8.3c0,0.6-0.5,1.1-1.1,1.1h-27.1c-0.6,0-1.1-0.5-1.1-1.1v-8.3
		C641.2,143.8,641.7,143.3,642.3,143.3z"/>
	<circle class="st1" cx="655.9" cy="199.2" r="3.8"/>
	<circle class="st1" cx="655.9" cy="245.2" r="3.8"/>
	<circle class="st1" cx="655.9" cy="291.2" r="3.8"/>
	<g>
		<path class="st4" d="M45.6,224.4c0-3.1-1.5-4.6-4.6-4.6H19.5c-2.9,0-4.6-1.7-4.6-4.6v-17.2c0-3.1,1.7-4.6,4.6-4.6H98
			c3.1,0,4.6,1.5,4.6,4.6v17.2c0,2.9-1.5,4.6-4.6,4.6H76.5c-2.9,0-4.6,1.5-4.6,4.6v71.7c0,2.9-1.5,4.6-4.6,4.6H50.2
			c-2.9,0-4.6-1.7-4.6-4.6V224.4z"/>
		<path class="st4" d="M140.8,193.5c3.1,0,4.6,1.5,4.6,4.6v98c0,2.9-1.5,4.6-4.6,4.6H124c-2.9,0-4.6-1.7-4.6-4.6v-98
			c0-3.1,1.7-4.6,4.6-4.6H140.8z"/>
		<path class="st4" d="M204.7,193.5c2.8,0,4.3,1.5,4.9,4.1l10.9,44.6c0.3,1.5,1.5,1.5,1.8,0l10.9-44.6c0.6-2.6,2.1-4.1,4.9-4.1h31.7
			c3.1,0,4.6,1.5,4.6,4.6v98c0,2.9-1.5,4.6-4.6,4.6h-17.2c-2.9,0-4.6-1.7-4.6-4.6v-60.3c0-1.1-1.4-1.2-1.7-0.2l-14.9,61.1
			c-0.6,2.6-2.3,4-5.1,4h-10.1c-2.8,0-4.4-1.4-5.1-4l-14.9-61.1c-0.3-1.1-1.7-0.9-1.7,0.2v60.3c0,2.9-1.5,4.6-4.6,4.6H173
			c-3.1,0-4.6-1.7-4.6-4.6v-98c0-3.1,1.5-4.6,4.6-4.6H204.7z"/>
		<path class="st4" d="M366.2,193.5c3.1,0,4.6,1.5,4.6,4.6v17.2c0,2.9-1.5,4.6-4.6,4.6h-37.1c-2.9,0-4.6,1.5-4.6,4.6v4.9
			c0,2.9,1.7,4.6,4.6,4.6h23.7c3.1,0,4.6,1.5,4.6,4.6v17.2c0,2.9-1.5,4.6-4.6,4.6h-23.7c-2.9,0-4.6,1.5-4.6,4.6v4.9
			c0,2.9,1.7,4.6,4.6,4.6h37.1c3.1,0,4.6,1.5,4.6,4.6v17.2c0,3.1-1.5,4.6-4.6,4.6h-64.3c-2.9,0-4.6-1.7-4.6-4.6v-98
			c0-3.1,1.7-4.6,4.6-4.6H366.2z"/>
	</g>
	<g>
		<path class="st4" d="M812,224.4c0-3.1-1.5-4.6-4.6-4.6H786c-2.9,0-4.6-1.7-4.6-4.6v-17.2c0-3.1,1.7-4.6,4.6-4.6h78.4
			c3.1,0,4.6,1.5,4.6,4.6v17.2c0,2.9-1.5,4.6-4.6,4.6H843c-2.9,0-4.6,1.5-4.6,4.6v71.7c0,2.9-1.5,4.6-4.6,4.6h-17.2
			c-2.9,0-4.6-1.7-4.6-4.6V224.4z"/>
		<path class="st4" d="M907.6,193.5c2.9,0,4.6,1.7,4.6,4.6v38.3c0,2.9,1.7,4.6,4.6,4.6h14.7c3.1,0,4.6-1.7,4.6-4.6v-38.3
			c0-2.9,1.7-4.6,4.6-4.6h17.2c3.1,0,4.6,1.5,4.6,4.6v98c0,2.9-1.5,4.6-4.6,4.6h-17.2c-2.9,0-4.6-1.7-4.6-4.6v-24.2
			c0-3.1-1.5-4.6-4.6-4.6h-14.7c-2.9,0-4.6,1.5-4.6,4.6v24.2c0,2.9-1.5,4.6-4.6,4.6h-17.2c-2.9,0-4.6-1.7-4.6-4.6v-98
			c0-3.1,1.5-4.6,4.6-4.6H907.6z"/>
		<path class="st4" d="M1059.6,295.5c0,3.4-1.5,5.2-4.6,5.2h-17.2c-2.9,0-4.6-1.5-4.6-4.6v-13.3c0-3.1-1.5-4.6-4.6-4.6h-13.2
			c-2.9,0-4.6,1.5-4.6,4.6v13.3c0,3.1-1.5,4.6-4.6,4.6h-17.2c-2.9,0-4.6-1.8-4.6-5.2v-64.9c0-19.3,3.1-39.8,37.5-39.8
			c34.5,0,37.5,20.5,37.5,39.8V295.5z M1033.3,230.5c0-7.4-1.1-11-11.2-11c-10.1,0-11.2,3.7-11.2,11v16.7c0,2.9,1.7,4.6,4.6,4.6
			h13.2c3.1-0.2,4.6-1.7,4.6-4.7V230.5z"/>
		<path class="st4" d="M1103.3,193.5c3.1,0,4.6,1.5,4.6,4.6v98c0,2.9-1.5,4.6-4.6,4.6h-16.8c-2.9,0-4.6-1.7-4.6-4.6v-98
			c0-3.1,1.7-4.6,4.6-4.6H1103.3z"/>
	</g>
	<g>
		<path class="st5" d="M694.3,280.1c37.5-35.6,58.2-87.8,51.3-143c-3.7-30.2-15.4-57.4-32.2-80.3c-0.2-0.2-0.3-0.4-0.5-0.6
			c2.3-1.5,4.7-3.4,7.1-6c12.4-13.6,3.3-42.4-23-42.4c-7.1,0-15.4,2.1-24.8,7.1c-17.9,9.5-29.3,26.5-32.8,45.2l-0.1,0
			c-1.9,9.5-2.3,19.5-1,29.7c5,40.3,34.8,71.6,72.2,80.3c4.5,38.8-1.8,76.4-16.5,109.8c-0.1,0.2,0.1,0.3,0.2,0.3
			C694.3,280.2,694.3,280.2,694.3,280.1z"/>
		<path class="st6" d="M728.2,120c-6.2,0-12.2-1.1-17.7-3.3l-4.8-12.6l-18.9-34.4c1.3-2.3,3.1-4,5.2-5.2c8-4.6,17.9-3,28.1-14.3
			c15.7-17.3-3.2-58.9-47.8-35.3c-17.9,9.5-29.3,26.5-32.8,45.2l-0.1,0c-1.9,9.5-2.3,19.5-1,29.7c5.2,42.2,37.5,74.4,77.3,81.3
			l5.9-25.8l-2.1-5.6c4.6-0.9,9.2-2.4,13.7-4.4C731.9,130.1,730.3,124.9,728.2,120z"/>
		<path class="st5" d="M683.8,88.7c13.9,23,22.9,50.7,26.5,79.7c4.9,39.8-1.5,78.3-16.7,112.4c38-35.6,59-88.2,52.1-143.8
			c-3.7-30.2-15.4-57.4-32.2-80.3C692.7,28.9,660.9,50.9,683.8,88.7z"/>
		<path class="st7" d="M692,64.5c8-4.6,17.9-3,28.1-14.3c15.2-16.8-2.1-56.5-44-37.1c-15.8,11-21,32.4-11.4,49.5
			c4.5,8.1,11.6,13.8,19.6,16.8C684.4,72.3,687.5,67.1,692,64.5z"/>
		<g>
			<path class="st5" d="M726.5,66.3c-17.4-18.4-47.9-8.6-48.8,16.7c-0.2,7.2,0.4,15.4,2.6,24.5c2.5,10.4,10.4,23.1,21.3,32.2
				c45,37.2,75.9,22.2,84.3,16.8c1-0.6,0.8-2.1-0.3-2.5C739.2,137.8,757.3,98.8,726.5,66.3z"/>
		</g>
		<g>
			<path class="st8" d="M711.7,33.7c-6.9,2.4-14.2,10.3-11.1,19.5c2.7,8.1,11.6,10.8,14.9,11.8c5.6,1.7,4.5,7.8,3.6,10.7
				c-0.2,0.5,0.4,1,0.9,0.7c3.7-2.1,13.3-9,14.6-22.9C735.7,40.9,727,28.3,711.7,33.7z"/>
			<path class="st6" d="M716.3,65.4c-0.3-0.1-0.5-0.2-0.8-0.3c-3.3-1-12.2-3.7-14.9-11.8c-0.3-1-0.5-2-0.6-2.9
				c-1.6,1.8-6.2,8.1-0.6,13.9C705.7,71,714.9,66.2,716.3,65.4z"/>
			<circle class="st9" cx="687.6" cy="29.3" r="8.8"/>
			<circle class="st2" cx="683.8" cy="27.8" r="2.3"/>
		</g>
		<path class="st10" d="M769.5,146c-35.4,4.4-68.7-11-88.9-37.5c2.8,10.2,10.4,22.5,21.1,31.2c44.9,37,75.7,22.3,84.2,16.8
			c1-0.7,0.8-2.2-0.3-2.6c-6.4-2.3-11.6-4.9-15.9-8C769.6,146,769.5,146,769.5,146z"/>
	</g>
	<g>
		<path class="st2" d="M724.3,242.2c-8.1,14-18.2,26.8-30,38c0,0-0.1,0.1-0.1,0.1c-0.1,0-0.3-0.1-0.2-0.3
			c14.7-33.4,21-71,16.5-109.8c-18-4.2-34.2-13.6-46.8-26.8h-9.4c0.9,1.1,1.8,2.1,2.8,3.2c12.8,14,28.9,24,47,29.1
			c3.2,34.7-2.4,69.7-16.4,101.5c-1,2.2-0.8,4.8,0.6,6.8c1.3,2.1,3.6,3.3,6,3.3c1.9,0,3.6-0.7,5-2c9.4-9,17.9-19,25.1-29.8V242.2z"
			/>
	</g>
</g>
<g id="Layer_2">
</g>
</svg>
