<svg xmlns="http://www.w3.org/2000/svg" width="172" height="52" viewBox="0 0 172 52">
    <g fill="#FFF" fill-rule="evenodd">
        <path fill-rule="nonzero" d="M73.985 24.536a.751.751 0 0 1-.712-.536h-4.667C67.166 24 66 25.18 66 26.635v22.73C66 50.821 67.167 52 68.606 52H75V24.536h-1.015zm-3.47 26.622h-1.454c-1.228 0-2.228-1.011-2.228-2.252v-1.47c0-.047.046-.092.106-.077a5.39 5.39 0 0 1 3.652 3.691c.015.062-.03.108-.076.108zm.076-26.224c-.515 1.777-1.894 3.186-3.652 3.692-.045.015-.106-.03-.106-.077v-1.47c0-1.24 1-2.252 2.228-2.252h1.454c.046.015.091.061.076.107z"/>
        <path d="M124.994 34.3c0-.476-.238-.705-.73-.705h-3.392c-.46 0-.73-.26-.73-.705v-2.634c0-.475.27-.705.73-.705h12.43c.49 0 .728.23.728.705v2.634c0 .444-.237.705-.729.705h-3.392c-.46 0-.73.23-.73.704V45.28c0 .444-.238.705-.729.705h-2.727c-.46 0-.73-.26-.73-.705V34.3zM140.15 29.567c.46 0 .73.26.73.704v5.866c0 .444.269.704.729.704h2.33c.491 0 .73-.26.73-.704V30.27c0-.444.269-.704.729-.704h2.726c.492 0 .73.23.73.704v15.01c0 .443-.238.704-.73.704h-2.726c-.46 0-.73-.26-.73-.705v-3.706c0-.475-.238-.705-.729-.705h-2.33c-.46 0-.73.23-.73.705v3.706c0 .444-.238.705-.729.705h-2.727c-.46 0-.73-.26-.73-.705V30.271c0-.475.239-.704.73-.704h2.727z"/>
        <path fill-rule="nonzero" d="M164.263 45.173c0 .52-.237.796-.729.796h-2.727c-.46 0-.729-.23-.729-.704v-2.037c0-.475-.238-.705-.73-.705h-2.092c-.46 0-.73.23-.73.705v2.037c0 .475-.237.704-.728.704h-2.727c-.46 0-.73-.275-.73-.796v-9.94c0-2.956.492-6.095 5.946-6.095 5.47 0 5.945 3.14 5.945 6.095v9.94h.031zm-4.185-9.94c0-1.133-.174-1.684-1.776-1.684-1.6 0-1.775.566-1.775 1.684v2.558c0 .444.27.704.73.704h2.092c.491-.03.729-.26.729-.72v-2.542z"/>
        <path d="M171.176 29.567c.491 0 .729.23.729.704v15.01c0 .443-.238.704-.73.704h-2.663c-.46 0-.73-.26-.73-.705V30.271c0-.475.27-.704.73-.704h2.664zM4.878 33.928c0-.483-.235-.717-.721-.717H.8c-.455 0-.722-.265-.722-.717V29.81c0-.483.267-.717.722-.717h12.298c.486 0 .722.234.722.717v2.683c0 .452-.236.717-.722.717H9.725c-.454 0-.721.234-.721.717v11.183c0 .452-.235.717-.722.717H5.6c-.455 0-.722-.265-.722-.717V33.928zM19.827 29.11c.487 0 .722.233.722.717V45.11c0 .452-.235.717-.722.717h-2.635c-.455 0-.721-.265-.721-.717V29.827c0-.484.266-.718.721-.718h2.635zM29.835 29.11c.44 0 .675.233.769.639l1.71 6.956c.047.234.235.234.282 0l1.71-6.956c.094-.406.33-.64.769-.64h4.972c.486 0 .722.234.722.718V45.11c0 .452-.236.717-.722.717H37.35c-.455 0-.722-.265-.722-.717v-9.405c0-.171-.22-.187-.266-.03l-2.322 9.529c-.094.405-.36.623-.8.623h-1.584c-.44 0-.69-.218-.8-.623l-2.337-9.53c-.047-.171-.267-.14-.267.031v9.405c0 .452-.235.717-.722.717h-2.698c-.486 0-.721-.265-.721-.717V29.827c0-.484.235-.718.721-.718h5.004zM55.184 29.11c.487 0 .722.233.722.717v2.682c0 .452-.235.718-.722.718h-5.82c-.454 0-.72.234-.72.717v.764c0 .453.266.718.72.718h3.718c.487 0 .722.234.722.717v2.683c0 .452-.235.717-.722.717h-3.717c-.455 0-.722.234-.722.718v.764c0 .452.267.717.722.717h5.82c.486 0 .72.234.72.718v2.682c0 .484-.234.718-.72.718H45.097c-.455 0-.722-.266-.722-.718V29.858c0-.484.267-.718.722-.718h10.086v-.03z"/>
        <g transform="translate(74 21)">
            <path d="M3.987 1.412V.188H.813v1.224H.96v-.22h2.133v.22z"/>
            <path d="M.067 0h3.907v1.412H.067z"/>
            <ellipse cx="2.027" cy="8.847" rx="1" ry="1"/>
            <ellipse cx="2.027" cy="16.063" rx="1" ry="1"/>
            <ellipse cx="2.027" cy="23.278" rx="1" ry="1"/>
        </g>
        <g>
            <path d="M101.253 22.194a16.557 16.557 0 0 1-.506-.58h-1.99v1.41h3.332c-.3-.266-.568-.548-.836-.83z"/>
            <path fill-rule="nonzero" d="M107.9 43.918c-.205.204-.49.313-.79.313-.378 0-.742-.188-.947-.517a1.158 1.158 0 0 1-.095-1.065 31.924 31.924 0 0 0 2.59-15.897 16.317 16.317 0 0 1-5.7-2.945h-.647V51.89h6.82c1.5 0 2.716-1.206 2.716-2.694v-9.945a27.202 27.202 0 0 1-3.947 4.667zm3.095 4.809a2.316 2.316 0 0 1-2.321 2.302h-1.516a.085.085 0 0 1-.08-.11 5.563 5.563 0 0 1 3.806-3.774c.048-.016.11.03.11.078v1.504z"/>
            <path d="M113.49 7.628c.157-1.66-.79-3.305-2.511-3.305-.332 0-.695.063-1.09.204-.963.344-1.989 1.362-1.863 2.6-.252.297-.979 1.268-.094 2.177.41.423.884.563 1.326.563.663 0 1.231-.297 1.374-.375.9.391.442 1.644.363 1.832 0 0 0 .016.016.016.205-.126 2.242-1.175 2.478-3.712z"/>
            <path fill-rule="nonzero" d="M121.842 23.604a.555.555 0 0 0-.347-.439l-.38-.14c-6.552-2.632-4.436-7.785-8.147-12.531-.726.893-1.547 1.3-1.705 1.378a.544.544 0 0 1-.284.063.683.683 0 0 1-.537-.282.615.615 0 0 1-.063-.595s.221-.548.11-.846c-.315.125-.773.266-1.263.266-.694 0-1.31-.266-1.784-.751a2.298 2.298 0 0 1-.505-.815c-.11.047-.284.125-.348.157-.742.423-1.231 1.19-1.357 2.161a5.673 5.673 0 0 1-2.527-2.334c-1.437-2.521-.71-5.67 1.674-7.33 2.779-1.268 5.226-.955 6.553.83a4.1 4.1 0 0 1 .552 1.034c.032.11.127.172.237.204.237.062.442-.173.363-.407a4.263 4.263 0 0 0-.647-1.207c-.569-.767-2.78-3.116-7.358-1.018l-.047.032c-.016 0-.016.015-.032.015-3.126 1.441-5.021 4.7-5.574 7.612h-.015a14.288 14.288 0 0 0-.158 4.652c.79 6.312 5.494 11.215 11.4 12.577.71 6.14-.3 12.092-2.669 17.355 4.974-4.62 8.1-11.074 8.4-18.106.553.11 1.09.156 1.627.172h.22c2.148 0 3.632-.752 4.343-1.206a.495.495 0 0 0 .268-.501zm-4.784 1.08c-2.684-.062-5.574-1.347-8.558-3.79a10.627 10.627 0 0 1-2.479-2.96c3.379 3.461 8.005 5.153 12.742 4.589a9.7 9.7 0 0 0 2.321 1.159c-.726.438-2.1 1.034-4.026 1.002z"/>
            <path d="M106.968 3.336a1.038 1.038 0 0 0-1.405-.391 1.02 1.02 0 0 0-.395 1.394c.285.485.9.673 1.406.391.49-.266.663-.893.394-1.394z"/>
        </g>
        <path fill-rule="nonzero" d="M97.997 24.252a.76.76 0 0 1-.76-.774v-1.207c-1.26-.093-2.461-.727-3.358-1.748C92.466 18.898 90.551 18 88.515 18c-2.051 0-3.95.898-5.364 2.523-.896 1.02-2.112 1.655-3.373 1.748v1.207a.76.76 0 0 1-.76.774H78V52h21V24.252h-1.003zm-3.83 17.457h-1.382v2.754H89.67V41.71h-6.352l-.304-.526 5.501-11.19 2.811 1.084-3.829 7.815h2.173v-3.126h3.115v3.126h1.383v2.817zM82.833 23.71a7.709 7.709 0 0 0 2.036-1.656c.973-1.13 2.28-1.75 3.662-1.75 1.383 0 2.69.62 3.662 1.75a7.474 7.474 0 0 0 2.037 1.656H82.832z"/>
        <circle cx="100.5" cy="29.5" r="1"/>
        <circle cx="100.5" cy="37.5" r="1"/>
        <circle cx="100.5" cy="44.5" r="1"/>
    </g>
</svg>
