<svg xmlns="http://www.w3.org/2000/svg" width="19" height="15" viewBox="0 0 19 15">
    <path fill="#688AA9" fill-rule="nonzero" d="M1.772 4.541C1.346 4.248.944 3.845.567 3.333.189 2.82 0 2.343 0 1.904 0 1.36.142.907.427.544.713.181 1.12 0 1.648 0h15.165c.446 0 .833.164 1.16.492.325.328.489.722.489 1.182 0 .551-.169 1.078-.505 1.58A4.934 4.934 0 0 1 16.7 4.541l-4.821 3.4-.438.32c-.224.164-.409.297-.557.398-.147.1-.326.214-.535.34a3.09 3.09 0 0 1-.593.282 1.611 1.611 0 0 1-.515.094h-.02a1.61 1.61 0 0 1-.516-.094 3.086 3.086 0 0 1-.592-.282c-.21-.126-.388-.24-.536-.34a21.397 21.397 0 0 1-.556-.398l-.438-.32a516.567 516.567 0 0 0-2.7-1.909 476.886 476.886 0 0 1-2.111-1.49zm15.66 1.087a5.772 5.772 0 0 0 1.03-.94v8.582c0 .476-.162.883-.485 1.222a1.55 1.55 0 0 1-1.164.508H1.648a1.55 1.55 0 0 1-1.164-.508A1.707 1.707 0 0 1 0 13.27V4.688a5.54 5.54 0 0 0 1.04.94C3.528 7.4 5.235 8.644 6.16 9.358c.392.302.71.538.954.707.243.17.568.343.973.52.405.176.783.264 1.133.264H9.241c.35 0 .728-.088 1.133-.265.406-.176.73-.35.974-.519.244-.169.561-.405.953-.708 1.167-.886 2.878-2.13 5.13-3.73z"/>
</svg>
