<svg xmlns="http://www.w3.org/2000/svg" width="21" height="16" viewBox="0 0 21 16">
    <g fill="#F5A623" fill-rule="evenodd">
        <path d="M1.947 5.039c.257.18 1.03.712 2.32 1.597 1.292.887 2.28 1.569 2.967 2.047.076.052.236.166.481.342.246.176.45.318.612.426.162.109.358.23.589.365.23.134.447.235.65.302.204.067.393.101.567.101h.022c.174 0 .363-.034.567-.1.203-.068.42-.17.65-.303.23-.135.427-.256.59-.365.162-.108.365-.25.61-.426.246-.176.406-.29.482-.342.694-.479 2.46-1.693 5.298-3.645a5.347 5.347 0 0 0 1.38-1.379c.37-.538.556-1.102.556-1.693 0-.493-.18-.916-.538-1.267a1.757 1.757 0 0 0-1.274-.527H1.812C1.23.172.783.366.47.755.157 1.144 0 1.63 0 2.213c0 .471.208.981.623 1.531.414.549.856.981 1.324 1.295"/>
        <path d="M19.156 6.239c-2.476 1.659-4.355 2.948-5.638 3.868-.43.314-.78.559-1.048.734a6.398 6.398 0 0 1-1.069.539c-.446.183-.86.275-1.246.275h-.022c-.386 0-.8-.092-1.246-.275a6.436 6.436 0 0 1-1.07-.539c-.267-.175-.617-.42-1.047-.734-1.02-.74-2.894-2.03-5.627-3.868A5.99 5.99 0 0 1 0 5.263v8.903c0 .494.177.916.532 1.267.355.352.781.527 1.28.527h16.664c.498 0 .925-.175 1.28-.527.355-.351.532-.773.532-1.267V5.263a6.252 6.252 0 0 1-1.132.976"/>
    </g>
</svg>
