<svg xmlns="http://www.w3.org/2000/svg" width="299" height="550" viewBox="0 0 299 550">
    <path fill="#F9F9F9" fill-rule="evenodd" d="M90.677.944L94.917 0s2.51 4.718 5.65 5.819c3.14 1.1 3.297-2.517 3.297-2.517h5.18c-.627 6.292 4.24 7.55 4.24 7.55h4.394v2.83h-2.824v6.606c-9.891 13.527 1.412 16.828 1.412 16.828l1.727-2.673 1.727.157 3.453 2.99 4.24-4.154v-1.824h6.121v1.824h8.164v4.153c-7.849 2.831 2.826 17.3 2.826 17.3-7.849 11.008-.472 14.469-7.379 18.873-6.907 4.403-2.982 4.561-1.727 5.819 1.257 1.258 2.199 4.718 2.199 4.718v8.493l-6.594 7.55-.315 4.875-2.51 2.516-.629 2.673 3.925-.314 6.28 3.302 14.286-11.638-.157-3.145h2.982l4.395-4.246.158-3.933 1.57.63c3.453 4.561 8.163-5.505 8.163-5.505h5.495c-1.257 4.875 8.634 9.122 8.634 9.122l6.594.628c-.786 3.775 2.197 5.978 2.197 5.978 3.454-7.706 8.634-7.55 8.634-7.55l4.71-1.257.157-3.147 6.593-5.662.315-4.088 2.983-1.887h8.79c13.188 9.436 11.46 3.302 11.46 3.302l3.612-.157c.785 2.36 3.296 4.718 3.296 4.718.158 4.718 5.494 9.28 5.494 9.28l.942 4.404 2.826 1.1c8.95 14.312 11.303 9.28 12.559 10.38 1.257 1.101 4.24 5.976 4.24 5.976l.313 11.638-3.14 1.417-.313 8.806 2.51-.157-.156 6.763-2.197.157.47 5.505 10.205 9.436c1.098 6.606 5.808 6.92 5.808 6.92l9.42 1.887c-10.519 3.145 7.378 12.268 7.378 12.268v5.19l-2.67 5.504c-3.138.787-2.825 6.292-2.825 6.292-4.396 5.347 2.826 8.02 2.826 8.02v4.718c-4.866 4.247-1.099 5.348-1.099 5.348v6.763c-1.727 5.347-8.32 7.549-8.32 7.549-4.867-.63-1.884 1.887-5.966 4.247-4.08 2.358-4.71-2.674-5.808-4.404-1.098-1.73-9.106-6.606-13.187-1.888-4.081 4.719-6.437.157-6.437.157h-12.402s-6.907 8.18-11.931 1.258c-5.024-6.92-10.203.159-10.203.159h-8.321v1.257h-3.768c-2.199 3.775-8.32 5.505-8.32 5.505 0 7.234-4.082 9.121-4.082 9.121-3.454 10.853-10.99 7.235-7.535 11.167 3.452 3.932-7.222 2.201-7.222 2.201s1.727 4.562-1.099 9.596c-2.826 5.032 9.576 16.827 6.594 19.815-2.983 2.99.628 7.549 6.121 9.909 5.495 2.358 0 12.267 0 12.267l7.222 15.885v4.876l-9.732-20.447-2.983-.314c-2.042 4.089-4.24 2.202-4.24 2.202l-2.353-.157.47 3.145 1.884.63v3.46h-3.925l-.785-2.99-1.884-.785-.157-4.247 2.826-.944v-5.348l-3.14 1.574-7.221-7.55-.314-2.83-2.199.472-1.412 1.1-4.71-5.975-4.866-.159c-8.79 5.505-14.6.787-14.6.787h-8.791l-2.041 3.146s-6.75-4.09-3.768-7.707c2.983-3.616.629-10.695.629-10.695l2.04-1.73.314-3.616-2.198-1.73 2.983-2.517.628-5.19-10.833-.315-.313-1.258-6.123-.314-.157 2.202s-5.337-.473-9.89 0c-4.553.47-12.558 7.392-9.262 8.964 3.297 1.573 4.24 7.235 4.24 7.235-7.066 7.549-4.554 21.704-4.554 21.704l2.511 10.066c-8.162 8.02-7.22 11.795-7.22 11.795s-7.223 13.998-7.38 16.356c-.156 2.36-4.08 11.48-4.08 11.48v7.079c-12.56 16.67-8.95 17.457-10.833 19.187-1.884 1.73-.314 6.763-.157 7.234.157.472-1.414 4.404-1.414 4.404-1.255 19.03 4.868 22.962 4.868 22.962v2.36c-4.71 2.2-.628 5.975-.628 5.975l8.477.314c.942-2.672 4.396-3.931 4.396-3.931l7.692-.314s1.728 15.098 4.238 24.535c2.513 9.436 6.594 8.65 6.594 8.65v-4.562l2.982 4.719c5.652 18.873 4.24 27.68 4.24 27.68-4.71-8.65-7.222-3.145-7.222-3.145-4.71 7.235 8.164 15.57 8.164 15.57-.785 5.661 3.611 5.82 3.611 5.82 3.453-2.046 5.65-.787 5.65-.787 3.298 7.39 9.211 8.073 10.886 8.493 1.674.418 1.36 2.515 1.36 2.515l11.302-.104v-2.517l3.768.106v1.048h3.873c10.989 19.607 15.489 20.864 19.257 22.437 3.767 1.574 2.302 6.502 2.302 6.502-2.93.838-5.442 5.032-5.442 5.032v5.556l-2.93 1.05c-1.57 3.669-3.873.21-3.873.21-2.197 2.83-3.139.524-3.139.524-1.255-5.766-5.023-5.558-5.023-5.558-3.768 3.356-8.059 4.3-8.059 4.3-4.919 7.967-6.07 5.346-10.257 2.515-4.187-2.83 2.407-8.387 2.407-8.387v-8.807h-1.674v-2.203l-3.14.106v2.097l-5.547-.63.21-3.25 1.989-.63c.836-4.928-3.768-6.605-3.768-6.605-1.048 4.718-15.594 3.67-15.28-2.831.313-6.5-4.71-5.662-4.397-4.299.313 1.364-3.768 2.831-1.57 4.195 2.199 1.363 0 2.935 0 2.935l-1.15 4.718-2.513-4.823c-5.023-2.41-8.477-11.113-8.477-11.113h-3.349l-2.407-2.517.104-7.34-1.78-.628c-2.091-4.824-10.778-9.646-10.778-9.646s-1.048-5.138-3.036-9.017c-1.989-3.88-5.755-1.783-5.755-1.783 0-1.573-2.618-1.468-2.618-1.468s.942-2.203.21-5.871c-.733-3.671-10.362-7.236-10.362-7.236s-.313-4.612-.627-6.605c-.315-1.992-3.998-.734-3.998-.734 1.234-5.662-5.002-2.097-5.002-2.097s1.15 5.558-1.152 6.397c-2.302.838-2.512 3.983-1.36 3.983 1.151 0 2.093 1.573 1.151 2.413-.942.838-.629 2.201-.629 2.201 1.57 3.565-4.08 5.872-4.08 5.872s-5.443-6.082-1.152-10.486c4.29-4.403 1.988-5.346 1.988-5.346-7.011-5.558-3.35-20.657-3.35-20.657l4.084-9.646v-4.299c-2.303-2.307 1.569-4.508 1.569-4.508l-.104-5.452 6.907-11.01-1.675-1.152.42-5.348c6.593-8.283 7.43-19.083 7.43-19.083 4.5-3.564 1.15-4.088 1.15-4.088l.68-6.396s13.187-9.436 19.94-23.12c6.75-13.682 10.517-14.783 10.517-14.783l.157-3.618-3.611-4.245v-5.662c3.924-3.775-2.356-3.304-2.356-3.304l.472-2.83-2.356-1.101-.313-10.852c-11.773-6.448-9.733-22.333-9.733-22.333s4.238-15.885-.628-21.704c-4.867-5.82-5.495-11.481-5.495-11.481s-15.228-5.348-16.17-12.582c-.942-7.235-10.046-13.84-10.046-13.84l.313-5.19-3.139-3.617.627-7.706 8.32-1.417c-1.726-6.29 2.513-5.189 2.513-5.189 6.122 5.346 2.983-3.46 2.983-3.46s.523-27.524 5.338-23.906c4.813 3.618 6.801-3.618 6.801-3.618l-.783-8.177-7.694 7.18-.157-9.016-7.273-9.12c5.651-4.615-1.452-10.317-9.969-18.454-8.517-8.14-4.16-10.106-10.008-12.977-5.848-2.869-6.554-7.94-6.554-7.94-3.925-2.203 1.412-13.212-1.884-14.47-3.296-1.259-1.099-6.763-1.099-6.763l-1.57.315c-4.238 5.19-5.652 2.201-5.652 2.201-.156-7.392-1.727-3.931-3.296-8.178-1.57-4.246 1.884-2.674 1.884-2.674 3.768 4.56 7.064 0 7.064 0h5.965l.158-7.39h-1.57l.313-5.821s-1.255.315-3.139 0c-1.884-.314 1.412-2.202 1.412-2.202-.313-2.674 5.025-4.561 5.025-4.561l-.313-8.334c-2.985-1.103 1.725-8.809 4.866-10.759 3.14-1.95 1.884-2.925 1.255-4.267-.628-1.342 1.884-3.847 1.884-3.847 2.04-3.461 7.064 3.459 7.064 3.459 10.99 2.203 19.467-5.82 24.177-2.988 4.71 2.83 4.238-7.234 4.238-7.234 3.297-9.122 7.065-3.46 11.931-4.09 4.867-.628 5.652-2.674 5.024-7.392-.627-4.717 2.982-2.045 2.982-2.045C88.95 6.606 90.677.944 90.677.944zm6.973 405.252l1.813 1.075-1.813 5.378-3.624-1.178-1.01-5.275h4.634zm-14.078 106.01l1.622 1.275c1.623 1.278-1.622 7.021-1.622 7.021l-3.449-4.893c2.029-.85 3.449-3.403 3.449-3.403zM45.127 468.88l-1.655-2.524s-3.073-2.734-1.656-4.837c1.42-2.104 3.31 0 3.31 0v7.361zm144.59-141.96v5.62c-2.172 1.873-2.763 0-2.763 0v-5.62h2.763z"/>
</svg>
