<svg xmlns="http://www.w3.org/2000/svg" width="90" height="90" viewBox="0 0 90 90">
    <g fill="none" fill-rule="evenodd">
        <circle cx="45" cy="45" r="45" fill="#1FA7F8"/>
        <g fill="#FFF">
            <path d="M46.523 21.907c-2.72 0-5.019 2.297-5.019 5.016 0 2.718 2.298 5.015 5.019 5.015 2.67 0 4.925-2.297 4.925-5.015 0-2.72-2.256-5.016-4.925-5.016m0 11.476c-3.504 0-6.465-2.958-6.465-6.46s2.96-6.461 6.465-6.461c1.697 0 3.298.682 4.509 1.92a6.464 6.464 0 0 1 1.861 4.54 6.464 6.464 0 0 1-1.861 4.542c-1.211 1.238-2.812 1.92-4.51 1.92"/>
            <path d="M40.21 33.739a7.658 7.658 0 0 0-1.53 4.566v1.411c0 .38.31.689.69.689h14.212a.69.69 0 0 0 .69-.689v-1.411a7.66 7.66 0 0 0-1.53-4.566c-1.7 1.576-3.924 2.466-6.22 2.466a9.313 9.313 0 0 1-6.311-2.466m13.371 8.11H39.37a2.137 2.137 0 0 1-2.134-2.133v-1.411c0-2.244.848-4.42 2.389-6.128a.723.723 0 0 1 1.074 0 7.856 7.856 0 0 0 5.825 2.583c2.192 0 4.228-.917 5.731-2.583a.724.724 0 0 1 1.074 0c1.54 1.708 2.39 3.884 2.39 6.128v1.411a2.137 2.137 0 0 1-2.136 2.133M24.929 49.238c-.313 0-.63.07-.928.218l-1.88.93a.685.685 0 0 0-.348.399.685.685 0 0 0 .037.527l8.472 16.933a.692.692 0 0 0 .924.309l1.855-.919c.504-.25.88-.68 1.059-1.213.179-.532.14-1.103-.112-1.605L26.813 50.4a2.105 2.105 0 0 0-1.884-1.162m5.974 20.831a2.137 2.137 0 0 1-1.915-1.179L20.517 51.96a2.12 2.12 0 0 1-.115-1.633 2.12 2.12 0 0 1 1.076-1.234l1.88-.931a3.554 3.554 0 0 1 4.749 1.594l7.195 14.417c.424.849.49 1.811.188 2.71a3.521 3.521 0 0 1-1.788 2.048l-1.856.919c-.303.15-.626.22-.943.22M37.864 62.981h15.718a7.767 7.767 0 0 0 6.192-3.087l8.29-11.863a2.088 2.088 0 0 0 .392-1.572 2.085 2.085 0 0 0-3.588-1.133l-7.72 9.486-.02.02c-.662.697-1.872 1.128-2.614 1.128h-6.58a2.111 2.111 0 0 1-2.134-2.134c0-1.196.938-2.133 2.135-2.133h5.647c1.159 0 2.101-.942 2.101-2.1 0-1.158-.942-2.1-2.1-2.1h-7.399c-.872 0-1.388-.473-1.844-.891-.077-.07-.157-.144-.242-.219-2.143-1.927-5.178-2.666-8.125-1.984-1.749.405-2.884 1.103-4.05 2.026l-.454.36-.017-.015-1.166 1.026 7.578 15.185zm15.718 1.445H36.97l-8.473-16.98 2.918-2.567.073.059c1.047-.78 2.309-1.518 4.16-1.946 3.406-.79 6.924.074 9.411 2.31.086.076.175.157.26.235.421.387.581.512.866.512h7.398a3.55 3.55 0 0 1 3.547 3.544 3.55 3.55 0 0 1-3.547 3.545h-5.647a.674.674 0 0 0-.69.688c0 .393.297.689.69.689h6.58c.365 0 1.167-.276 1.548-.66l7.712-9.476.015-.016a3.53 3.53 0 0 1 4.687-.46 3.525 3.525 0 0 1 1.41 2.344 3.522 3.522 0 0 1-.658 2.64l-8.29 11.862a9.22 9.22 0 0 1-7.357 3.677z"/>
        </g>
    </g>
</svg>
