<svg xmlns="http://www.w3.org/2000/svg" xmlns:xlink="http://www.w3.org/1999/xlink" width="86" height="86" viewBox="0 0 86 86">
    <defs>
        <circle id="b" cx="36" cy="36" r="36"/>
        <filter id="a" width="133.3%" height="133.3%" x="-16.7%" y="-12.5%" filterUnits="objectBoundingBox">
            <feOffset dy="3" in="SourceAlpha" result="shadowOffsetOuter1"/>
            <feGaussianBlur in="shadowOffsetOuter1" result="shadowBlurOuter1" stdDeviation="3.5"/>
            <feColorMatrix in="shadowBlurOuter1" values="0 0 0 0 0 0 0 0 0 0 0 0 0 0 0 0 0 0 0.144333107 0"/>
        </filter>
    </defs>
    <g fill="none" fill-rule="evenodd">
        <g transform="translate(7 4)">
            <use fill="#000" filter="url(#a)" xlink:href="#b"/>
            <use fill="#29364e" xlink:href="#b"/>
        </g>
        <path fill="#a7bfd6" d="M59 48.273c0 .41-.076.943-.227 1.602-.152.66-.31 1.178-.478 1.557-.318.758-1.242 1.56-2.772 2.409-1.424.773-2.834 1.159-4.228 1.159-.409 0-.806-.026-1.193-.08a9.757 9.757 0 0 1-1.307-.284 18.179 18.179 0 0 1-1.08-.33 78.232 78.232 0 0 1-1.26-.465 47.087 47.087 0 0 0-1.114-.409c-1.485-.53-2.81-1.16-3.977-1.886-1.94-1.197-3.943-2.83-6.012-4.899-2.068-2.068-3.701-4.071-4.898-6.01-.727-1.167-1.356-2.493-1.886-3.978a50.059 50.059 0 0 0-.409-1.114 86.38 86.38 0 0 1-.466-1.26 18.408 18.408 0 0 1-.33-1.08 9.875 9.875 0 0 1-.284-1.307A8.746 8.746 0 0 1 27 30.704c0-1.393.386-2.803 1.159-4.227.849-1.53 1.651-2.454 2.41-2.773.378-.166.897-.325 1.556-.477.659-.151 1.193-.227 1.602-.227.212 0 .371.023.478.068.272.091.674.667 1.204 1.727.166.288.394.697.682 1.228.288.53.553 1.01.795 1.443.242.431.477.837.705 1.215.045.062.177.25.398.569.219.318.382.587.488.807.106.22.16.435.16.647 0 .304-.216.682-.648 1.137a11.03 11.03 0 0 1-1.41 1.25c-.507.379-.977.78-1.409 1.205-.432.424-.647.772-.647 1.045 0 .136.037.307.113.51.076.206.14.361.193.467.053.106.16.288.319.546.159.257.246.401.261.431 1.151 2.076 2.47 3.856 3.955 5.341 1.485 1.485 3.265 2.804 5.34 3.955.03.015.175.102.432.261.258.16.44.266.546.319.106.053.26.117.466.193.204.075.375.113.511.113.273 0 .621-.216 1.045-.647a13.71 13.71 0 0 0 1.205-1.41 11.03 11.03 0 0 1 1.25-1.409c.455-.432.833-.647 1.136-.647.212 0 .428.053.648.159.22.106.49.269.807.488.318.22.507.352.569.398.378.228.784.462 1.215.705.432.242.913.507 1.443.795.53.288.94.515 1.228.682 1.06.53 1.636.932 1.727 1.204.045.107.068.265.068.478"/>
    </g>
</svg>
