<svg xmlns="http://www.w3.org/2000/svg" width="20" height="20" viewBox="0 0 20 20">
    <g fill="#F5A623" fill-rule="evenodd">
        <path d="M15.183 13.221c-.652-.64-1.467-.64-2.115 0-.494.488-.989.976-1.475 1.472-.133.137-.246.166-.407.074-.32-.173-.661-.314-.969-.504-1.434-.897-2.635-2.05-3.698-3.349-.528-.645-.998-1.335-1.326-2.112-.067-.157-.054-.26.074-.389.495-.476.977-.963 1.463-1.451.678-.678.678-1.472-.004-2.154-.386-.389-.773-.77-1.16-1.158-.398-.397-.793-.798-1.196-1.19-.653-.633-1.467-.633-2.115.004-.5.488-.977.988-1.484 1.467-.47.443-.707.984-.757 1.617-.078 1.03.175 2 .533 2.948.73 1.96 1.845 3.7 3.195 5.296a19.762 19.762 0 0 0 6.55 5.098c1.147.553 2.335.98 3.628 1.05.89.05 1.662-.174 2.282-.864.423-.472.901-.902 1.35-1.352.665-.67.67-1.48.009-2.142a618.92 618.92 0 0 0-2.378-2.36M15.11 9.804a.77.77 0 0 0 .612-.982 6.829 6.829 0 0 0-1.715-2.836 6.827 6.827 0 0 0-3.046-1.764.779.779 0 0 0-.975.64.777.777 0 0 0 .571.857c.886.24 1.69.703 2.353 1.363a5.251 5.251 0 0 1 1.321 2.181.777.777 0 0 0 .872.542l.007-.001zM16.788 3.295A11.32 11.32 0 0 0 11.118.22a.775.775 0 0 0-.925.65v.004a.77.77 0 0 0 .6.862A9.818 9.818 0 0 1 15.69 4.39a9.736 9.736 0 0 1 2.599 4.565c.098.395.483.65.886.581a.775.775 0 0 0 .623-.952c-.5-2-1.53-3.813-3.01-5.29"/>
    </g>
</svg>
