<svg xmlns="http://www.w3.org/2000/svg" width="90" height="90" viewBox="0 0 90 90">
    <g fill="none" fill-rule="evenodd">
        <circle cx="45" cy="45" r="45" fill="#1FA7F8"/>
        <path fill="#FFF" d="M39.109 35.801a3.277 3.277 0 0 0-3.274 3.272 3.277 3.277 0 0 0 3.274 3.272 3.276 3.276 0 0 0 3.274-3.272 3.276 3.276 0 0 0-3.274-3.272m0 7.989a4.724 4.724 0 0 1-4.72-4.717c0-2.6 2.118-4.717 4.72-4.717a4.723 4.723 0 0 1 4.72 4.717c0 2.6-2.118 4.717-4.72 4.717m13.107-7.02a.666.666 0 0 0-.472.194L37 51.701a.668.668 0 0 0 .944.943l14.745-14.736a.663.663 0 0 0-.472-1.138M37.471 54.283a2.114 2.114 0 0 1-1.494-3.605l14.745-14.736a2.116 2.116 0 0 1 2.988 0c.4.399.62.93.62 1.493 0 .564-.22 1.095-.62 1.493L38.965 53.666a2.1 2.1 0 0 1-1.494.618m13.107-7.02a3.277 3.277 0 0 0-3.274 3.27 3.277 3.277 0 0 0 3.274 3.273 3.276 3.276 0 0 0 3.274-3.272 3.277 3.277 0 0 0-3.274-3.272m0 7.989a4.724 4.724 0 0 1-4.72-4.717c0-2.6 2.117-4.717 4.72-4.717a4.723 4.723 0 0 1 4.72 4.717c0 2.6-2.118 4.717-4.72 4.717M39.324 64.02c.128 0 .246.014.355.042.5.134 1.012.673 1.902 1.754.949 1.154 1.93 2.346 3.262 2.346 1.333 0 2.314-1.192 3.263-2.345.89-1.082 1.401-1.62 1.902-1.755.588-.156 1.46.14 2.629.576 1.371.51 2.787 1.038 3.896.397 1.127-.652 1.377-2.156 1.62-3.611.235-1.41.414-2.145.795-2.526.38-.38 1.117-.559 2.523-.793 1.46-.243 2.965-.493 3.617-1.62.641-1.107.113-2.523-.397-3.892-.437-1.17-.733-2.042-.577-2.628.134-.5.673-1.012 1.756-1.902 1.154-.948 2.347-1.928 2.347-3.26 0-1.332-1.193-2.312-2.347-3.26l.459-.558-.46.557c-1.082-.89-1.62-1.4-1.755-1.9-.156-.587.14-1.46.577-2.628.51-1.37 1.038-2.786.397-3.894-.652-1.125-2.158-1.376-3.614-1.618-1.41-.235-2.146-.414-2.527-.795-.38-.38-.559-1.116-.794-2.521-.243-1.459-.493-2.963-1.62-3.615-1.108-.64-2.525-.113-3.895.397-1.17.436-2.043.732-2.63.576-.5-.134-1.012-.673-1.902-1.755-.95-1.153-1.93-2.345-3.263-2.345-1.332 0-2.313 1.192-3.262 2.345-.89 1.083-1.402 1.621-1.902 1.755-.587.156-1.46-.14-2.63-.576-1.37-.51-2.787-1.038-3.896-.397-1.126.652-1.377 2.156-1.62 3.612-.234 1.408-.413 2.144-.794 2.525-.38.38-1.118.56-2.525.793-1.457.243-2.963.494-3.615 1.62-.641 1.107-.114 2.523.397 3.892.436 1.17.733 2.042.576 2.628-.133.5-.672 1.012-1.754 1.9-1.155.95-2.348 1.93-2.348 3.262s1.193 2.312 2.347 3.26c1.083.89 1.621 1.401 1.755 1.901.157.587-.14 1.46-.576 2.628-.51 1.37-1.038 2.786-.397 3.894.652 1.126 2.158 1.376 3.614 1.618 1.41.235 2.146.414 2.527.795.38.38.559 1.116.793 2.522.243 1.458.494 2.963 1.62 3.614 1.11.641 2.526.113 3.897-.397.953-.355 1.71-.618 2.274-.618m5.52 5.587c-2.016 0-3.327-1.593-4.38-2.873-.25-.304-.894-1.087-1.17-1.271-.338.007-1.313.37-1.74.529-1.526.569-3.425 1.276-5.124.294-1.717-.993-2.053-3.007-2.322-4.625-.067-.402-.24-1.434-.397-1.735-.301-.157-1.333-.33-1.732-.396-1.623-.27-3.638-.605-4.631-2.32-.983-1.698-.276-3.596.293-5.121.16-.428.523-1.402.53-1.74-.184-.276-.968-.92-1.272-1.17-1.28-1.052-2.875-2.362-2.875-4.376 0-2.014 1.594-3.324 2.875-4.376.304-.25 1.088-.894 1.272-1.17-.007-.338-.37-1.312-.53-1.737-.569-1.527-1.276-3.425-.293-5.123.993-1.716 3.008-2.051 4.627-2.32.401-.068 1.435-.24 1.736-.397.158-.301.33-1.333.396-1.732.27-1.62.606-3.635 2.322-4.627 1.7-.983 3.598-.276 5.124.293.428.16 1.402.522 1.74.53.277-.185.921-.968 1.17-1.271C41.518 21.593 42.829 20 44.844 20c2.016 0 3.326 1.593 4.38 2.873.249.303.894 1.087 1.17 1.271.339-.007 1.313-.37 1.739-.529 1.528-.569 3.427-1.276 5.125-.293 1.717.993 2.053 3.006 2.322 4.624.067.402.24 1.434.396 1.735.302.157 1.335.33 1.734.396 1.622.27 3.637.605 4.63 2.32.983 1.698.275 3.596-.293 5.121-.16.428-.523 1.401-.53 1.74.184.276.967.92 1.27 1.169l-.457.559.459-.558c1.28 1.052 2.875 2.362 2.875 4.376 0 2.014-1.594 3.324-2.875 4.376-.304.25-1.088.894-1.272 1.17.007.338.37 1.312.53 1.738.568 1.527 1.276 3.425.293 5.122-.993 1.716-3.008 2.051-4.627 2.32-.403.068-1.435.24-1.737.397-.157.301-.329 1.332-.395 1.731-.27 1.622-.606 3.636-2.323 4.629-1.698.982-3.597.275-5.124-.293-.428-.16-1.401-.523-1.74-.53-.276.184-.921.968-1.17 1.271-1.054 1.28-2.364 2.873-4.38 2.873"/>
    </g>
</svg>
