<svg xmlns="http://www.w3.org/2000/svg" width="90" height="90" viewBox="0 0 90 90">
    <g fill="none" fill-rule="evenodd">
        <circle cx="45" cy="45" r="45" fill="#1FA7F8"/>
        <path fill="#FFF" d="M35.504 43.094a1.23 1.23 0 0 0-.87 2.098l6.997 6.992a1.102 1.102 0 0 0 1.555 0l13.9-13.893c.233-.232.36-.54.36-.869a1.232 1.232 0 0 0-2.1-.87L42.41 49.485l-6.036-6.03a1.221 1.221 0 0 0-.87-.36zm6.905 10.856a2.538 2.538 0 0 1-1.8-.744l-6.997-6.993a2.676 2.676 0 0 1 3.783-3.781l5.014 5.01 11.916-11.91a2.68 2.68 0 0 1 3.783-.001c.506.506.784 1.177.784 1.891s-.278 1.386-.783 1.89l-13.9 13.894a2.539 2.539 0 0 1-1.8.744zM27.206 24.456a.674.674 0 0 0-.673.673v21.496a24.477 24.477 0 0 0 3.663 12.97 24.497 24.497 0 0 0 9.969 9.074l4.872 2.435a.676.676 0 0 0 .602 0l4.87-2.434a24.498 24.498 0 0 0 9.97-9.074 24.477 24.477 0 0 0 3.663-12.969V25.129a.674.674 0 0 0-.673-.673H27.206zM45.338 72.62a2.12 2.12 0 0 1-.948-.223l-4.87-2.434c-4.35-2.155-8-5.477-10.554-9.607a25.917 25.917 0 0 1-3.879-13.733V25.13a2.12 2.12 0 0 1 2.12-2.118h36.262a2.12 2.12 0 0 1 2.119 2.118v21.496a25.918 25.918 0 0 1-3.879 13.73 25.94 25.94 0 0 1-10.556 9.609l-4.868 2.432a2.121 2.121 0 0 1-.947.223z"/>
    </g>
</svg>
