<svg xmlns="http://www.w3.org/2000/svg" width="25" height="22" viewBox="0 0 25 22">
    <path fill="#4A4A4A" fill-rule="nonzero" d="M24.695 4.196a.81.81 0 0 0-.62-.32L8.669 3.25c-.442-.019-.811.303-.83.717-.019.414.322.763.762.781l14.364.583-2.824 8.293H7.57L5.301 1.99a.763.763 0 0 0-.493-.562L1.088.052C.679-.1.217.09.056.476c-.16.385.04.82.45.972l3.307 1.223 2.311 11.84c.07.356.4.614.784.614h.384l-.876 2.288a.593.593 0 0 0 .082.571.677.677 0 0 0 .543.266h.614c-.38.398-.614.923-.614 1.5 0 1.24 1.073 2.25 2.39 2.25 1.319 0 2.392-1.01 2.392-2.25 0-.577-.234-1.102-.614-1.5h5.213c-.381.398-.615.923-.615 1.5 0 1.24 1.073 2.25 2.391 2.25 1.319 0 2.391-1.01 2.391-2.25 0-.577-.233-1.102-.614-1.5h.747c.367 0 .664-.28.664-.625S21.088 17 20.721 17H7.985l.717-1.875h12.019c.347 0 .653-.21.759-.521l3.32-9.75a.712.712 0 0 0-.105-.658zM9.431 20.75c-.586 0-1.063-.448-1.063-1 0-.551.477-1 1.063-1s1.063.449 1.063 1c0 .552-.477 1-1.063 1zm8.766 0c-.586 0-1.062-.448-1.062-1 0-.551.476-1 1.062-1 .586 0 1.063.449 1.063 1 0 .552-.477 1-1.063 1z"/>
</svg>
