<svg xmlns="http://www.w3.org/2000/svg" width="18" height="18" viewBox="0 0 18 18">
    <path fill="none" fill-rule="nonzero" stroke="#F5A623" d="M16.984 7.086a.334.334 0 0 0-.267-.235l-5.131-.777-2.29-4.881A.328.328 0 0 0 9 1a.328.328 0 0 0-.296.193l-2.29 4.88-5.131.778a.335.335 0 0 0-.267.235.358.358 0 0 0 .084.355l3.716 3.794-.881 5.36c-.022.13.03.261.13.339a.316.316 0 0 0 .348.026L9 14.424l4.587 2.536a.317.317 0 0 0 .347-.026.354.354 0 0 0 .131-.339l-.88-5.36L16.9 7.44a.359.359 0 0 0 .084-.355z"/>
</svg>
