<svg xmlns="http://www.w3.org/2000/svg" width="17" height="11" viewBox="0 0 17 11">
    <path fill="#FFA000" fill-rule="nonzero" d="M16.245 8.436c-.37-.492-.788-.931-1.192-1.356-.142-.149-.289-.303-.43-.457-.19-.206-.284-.352-.293-.46-.01-.106.055-.263.206-.496.224-.35.464-.7.696-1.04.206-.3.419-.612.623-.926l.046-.07c.398-.612.81-1.244 1.03-2.015.063-.22.129-.548-.03-.835-.157-.287-.45-.372-.656-.411-.1-.02-.196-.021-.285-.021L13.376.346c-.446-.008-.756.227-.925.699-.135.377-.295.813-.48 1.227-.354.8-.803 1.72-1.455 2.488l-.029.034c-.044.053-.117.139-.154.158-.07-.049-.152-.33-.148-.478v-.01l-.002-3.313a.418.418 0 0 0-.003-.05c-.058-.473-.171-.946-.845-1.094A.305.305 0 0 0 9.269 0H6.582c-.506 0-.773.257-.988.535-.062.082-.227.297-.143.56.085.267.339.32.422.338.293.062.444.245.491.597.093.682.104 1.412.036 2.295a2.046 2.046 0 0 1-.112.568.453.453 0 0 1-.039.082.383.383 0 0 1-.073-.046c-.206-.156-.36-.399-.51-.634-.6-.938-1.104-1.974-1.541-3.169-.18-.489-.52-.762-.954-.77a58.013 58.013 0 0 0-2.34.002C.48.365.234.488.099.723c-.135.236-.13.538.015.895 1.035 2.556 1.976 4.415 3.049 6.029.756 1.136 1.516 1.924 2.394 2.481.922.585 1.961.872 3.168.872.137 0 .276-.004.418-.011.744-.038 1.047-.366 1.08-1.17.018-.425.06-.77.209-1.069.041-.084.088-.14.125-.15.039-.01.108.016.185.071.141.102.263.24.362.36.102.123.204.25.303.373.21.262.428.532.656.79.517.584 1.111.851 1.77.795l2.364.002.022-.001c.273-.02.509-.188.647-.46.167-.328.164-.743-.007-1.11a5.633 5.633 0 0 0-.613-.984z"/>
</svg>
