<svg xmlns="http://www.w3.org/2000/svg" width="47" height="47" viewBox="0 0 47 47">
    <g fill="none" fill-rule="evenodd">
        <path fill="#A7BFD6" d="M22.757 30.813h1.559s.47-.052.711-.31c.221-.239.214-.685.214-.685s-.03-2.092.94-2.4c.957-.303 2.186 2.021 3.488 2.915.985.677 1.733.528 1.733.528l3.482-.048s1.822-.112.958-1.544c-.07-.118-.503-1.06-2.589-2.996-2.183-2.027-1.89-1.699.74-5.204 1.601-2.135 2.242-3.439 2.042-3.997-.191-.532-1.37-.391-1.37-.391l-3.92.024s-.29-.04-.506.09c-.21.126-.346.42-.346.42s-.621 1.652-1.449 3.057c-1.745 2.965-2.443 3.121-2.729 2.937-.664-.429-.498-1.723-.498-2.643 0-2.873.436-4.07-.848-4.38-.427-.104-.74-.172-1.83-.183-1.399-.014-2.583.005-3.254.333-.446.219-.79.705-.58.733.26.035.846.158 1.157.582.402.547.388 1.774.388 1.774s.23 3.382-.54 3.802c-.528.289-1.253-.3-2.81-2.99-.797-1.377-1.399-2.9-1.399-2.9s-.116-.284-.323-.437c-.251-.184-.603-.243-.603-.243l-3.725.025s-.56.015-.765.258c-.183.217-.014.664-.014.664s2.916 6.824 6.22 10.263c3.027 3.153 6.466 2.946 6.466 2.946z"/>
        <rect width="45.7" height="45.7" x=".65" y=".65" stroke="#7D9BB7" stroke-width="1.3" rx="22.85"/>
    </g>
</svg>
