<svg xmlns="http://www.w3.org/2000/svg" width="90" height="90" viewBox="0 0 90 90">
    <g fill="none" fill-rule="evenodd">
        <circle cx="45" cy="45" r="45" fill="#1FA7F8"/>
        <path fill="#FFF" d="M43.438 44.92h-.012a2.247 2.247 0 0 1-1.585-.663l-2.943-2.94a.722.722 0 1 1 1.023-1.022l2.942 2.94a.81.81 0 0 0 .57.24h.005c.21 0 .409-.082.559-.232l5.989-5.985a.723.723 0 0 1 1.022 1.022l-5.989 5.985a2.222 2.222 0 0 1-1.581.656m1.59-15.353c-6.315 0-11.454 5.135-11.454 11.447 0 6.312 5.139 11.447 11.454 11.447 6.316 0 11.454-5.135 11.454-11.447 0-6.312-5.138-11.447-11.454-11.447m0 24.339c-7.113 0-12.9-5.783-12.9-12.892 0-7.108 5.787-12.892 12.9-12.892s12.9 5.784 12.9 12.892c0 7.109-5.787 12.892-12.9 12.892m5.012 5.99a.723.723 0 0 1 .655.417l3.364 7.207 2.265-2.852a.729.729 0 0 1 .585-.273l3.643.1-3.808-8.162a.723.723 0 0 1-.054-.445l.14-.715c.22-1.107 1.258-2.145 2.366-2.364l1.91-.376a.796.796 0 0 0 .51-.343.793.793 0 0 0 .12-.6l-.382-1.908c-.222-1.107.34-2.463 1.28-3.089l1.62-1.079a.795.795 0 0 0 .34-.511.793.793 0 0 0-.118-.601l-1.084-1.616c-.629-.938-.629-2.406 0-3.343l1.084-1.617a.795.795 0 0 0 .118-.602.793.793 0 0 0-.34-.51l-1.62-1.079c-.94-.625-1.502-1.982-1.28-3.088l.383-1.908a.795.795 0 0 0-.122-.602.794.794 0 0 0-.509-.341l-1.91-.377c-1.108-.219-2.147-1.257-2.365-2.364l-.377-1.91a.795.795 0 0 0-.343-.508.794.794 0 0 0-.601-.121l-1.91.382c-1.106.222-2.464-.34-3.09-1.279l-1.079-1.62a.796.796 0 0 0-.512-.339.794.794 0 0 0-.601.118L46.7 22.663c-.938.628-2.407.628-3.345 0l-1.618-1.084a.795.795 0 0 0-.603-.117.794.794 0 0 0-.51.338l-1.08 1.62c-.625.94-1.983 1.502-3.09 1.28l-1.909-.383a.795.795 0 0 0-.602.122c-.18.12-.3.3-.341.508l-.377 1.91c-.22 1.106-1.258 2.145-2.366 2.363l-1.91.377a.796.796 0 0 0-.51.343.792.792 0 0 0-.12.6l.382 1.908c.222 1.106-.34 2.463-1.28 3.088l-1.62 1.079a.795.795 0 0 0-.34.512.793.793 0 0 0 .118.6l1.084 1.617c.63.937.63 2.405 0 3.343l-1.084 1.616a.795.795 0 0 0-.117.603.792.792 0 0 0 .339.51l1.62 1.078c.94.626 1.502 1.982 1.28 3.089l-.383 1.908a.795.795 0 0 0 .123.601c.12.18.3.3.508.342l1.91.376c1.108.219 2.147 1.257 2.366 2.364l.14.715c.03.15.011.306-.053.445l-3.808 8.161 3.642-.1a.73.73 0 0 1 .586.274l2.265 2.852 3.363-7.207a.723.723 0 0 1 1.257-.095l.007.011c.118.176.3.297.512.34.212.041.425 0 .601-.119l1.618-1.083c.938-.629 2.407-.629 3.345 0l1.617 1.083c.176.118.39.16.603.118a.793.793 0 0 0 .51-.339l.006-.009a.723.723 0 0 1 .603-.324m3.858 9.712a.723.723 0 0 1-.655-.417l-3.456-7.407a2.27 2.27 0 0 1-2.274-.134l-1.617-1.083c-.454-.304-1.281-.304-1.735 0l-1.618 1.083a2.23 2.23 0 0 1-1.688.335 2.275 2.275 0 0 1-.585-.201l-3.456 7.407a.723.723 0 0 1-1.222.143l-2.767-3.485-4.45.122a.722.722 0 0 1-.675-1.028l4.203-9.007-.096-.483c-.106-.536-.69-1.12-1.226-1.226l-1.91-.377a2.23 2.23 0 0 1-1.432-.956 2.23 2.23 0 0 1-.337-1.688l.383-1.908c.107-.536-.21-1.3-.664-1.602L25 46.618a2.228 2.228 0 0 1-.956-1.43 2.23 2.23 0 0 1 .334-1.69l1.084-1.616c.305-.454.305-1.28 0-1.734l-1.084-1.616a2.227 2.227 0 0 1-.335-1.687A2.23 2.23 0 0 1 25 35.412l1.62-1.079c.456-.302.772-1.066.665-1.601l-.383-1.908a2.228 2.228 0 0 1 .336-1.687 2.233 2.233 0 0 1 1.432-.958l1.91-.377c.537-.105 1.121-.69 1.227-1.226l.377-1.909a2.227 2.227 0 0 1 .957-1.43 2.232 2.232 0 0 1 1.69-.337l1.909.383c.536.107 1.3-.21 1.602-.664l1.08-1.62a2.23 2.23 0 0 1 1.431-.955 2.233 2.233 0 0 1 1.69.335l1.618 1.084c.454.304 1.28.304 1.734 0l1.618-1.084a2.231 2.231 0 0 1 1.688-.335 2.232 2.232 0 0 1 1.433.955l1.08 1.62c.303.455 1.067.771 1.602.664l1.91-.383a2.233 2.233 0 0 1 1.688.336c.502.336.842.844.958 1.431l.377 1.91c.106.535.69 1.12 1.227 1.225l1.91.377a2.23 2.23 0 0 1 1.43.956 2.23 2.23 0 0 1 .338 1.689l-.382 1.908c-.108.535.209 1.299.663 1.601l1.621 1.08c.499.331.838.84.956 1.43a2.23 2.23 0 0 1-.335 1.689l-1.084 1.616c-.304.454-.304 1.28 0 1.734l1.084 1.616c.334.498.453 1.097.335 1.688a2.23 2.23 0 0 1-.956 1.432l-1.62 1.079c-.455.303-.772 1.066-.664 1.602l.382 1.908a2.227 2.227 0 0 1-.336 1.686 2.233 2.233 0 0 1-1.432.958l-1.91.377c-.536.106-1.121.69-1.227 1.226l-.095.483 4.202 9.007a.722.722 0 0 1-.674 1.028l-4.45-.122-2.768 3.485a.723.723 0 0 1-.566.274"/>
    </g>
</svg>
